<?xml version="1.0" encoding="utf-8"?>
<!-- Generator: Adobe Illustrator 24.0.1, SVG Export Plug-In . SVG Version: 6.00 Build 0)  -->
<svg version="1.1" xmlns="http://www.w3.org/2000/svg" xmlns:xlink="http://www.w3.org/1999/xlink" x="0px" y="0px"
	 viewBox="0 0 430.07 430.07" style="enable-background:new 0 0 430.07 430.07;" xml:space="preserve">
<style type="text/css">
	.st0{fill:#F0F0F0;}
	.st1{fill:#095B48;}
	.st2{opacity:0.2;}
	.st3{fill:#FAFAFA;}
	.st4{opacity:0.5;fill:#FAFAFA;}
	.st5{opacity:0.1;}
	.st6{fill:#E0E0E0;}
	.st7{fill:#37474F;}
	.st8{fill:#263238;}
	.st9{fill:#455A64;}
	.st10{fill:#F5F5F5;}
	.st11{fill:#F28F8F;}
	.st12{fill:#FFA8A7;}
</style>
<g id="Floor">
	<g id="XMLID_15997_">
		<g id="XMLID_15998_">
			<path class="st0" d="M63.33,360.33c83.79,43.77,219.63,43.77,303.41,0c83.79-43.77,83.79-114.74,0-158.51
				c-83.79-43.77-219.63-43.77-303.41,0C-20.46,245.6-20.46,316.56,63.33,360.33z"/>
		</g>
	</g>
</g>
<g id="Plants">
	<g id="XMLID_15937_">
		<g id="XMLID_15913_">
			<g id="XMLID_15915_">
				<path class="st1" d="M384.53,274.62c0,0,1.06-5.28,9.57-9.36c8.29-3.97,13.07-3.07,18.76-5.37c5.76-2.32,1.61-13.05-14.02-8.26
					c-14.29,4.38-15.74,16.75-15.74,16.75L384.53,274.62z"/>
				<path class="st2" d="M384.53,274.62c0,0,1.06-5.28,9.57-9.36c8.29-3.97,13.07-3.07,18.76-5.37c5.76-2.32,1.61-13.05-14.02-8.26
					c-14.29,4.38-15.74,16.75-15.74,16.75L384.53,274.62z"/>
			</g>
			<g id="XMLID_15914_">
				<path class="st3" d="M383.06,272.63c-0.06,0-0.12-0.01-0.18-0.03c-0.28-0.1-0.44-0.41-0.34-0.69
					c1.96-5.72,7.02-11.04,13.52-14.23c8.36-4.09,14.31-2.79,14.56-2.73c0.29,0.07,0.47,0.36,0.41,0.65
					c-0.07,0.29-0.36,0.48-0.65,0.41c-0.06-0.01-5.85-1.26-13.84,2.65c-6.25,3.06-11.1,8.14-12.97,13.6
					C383.5,272.49,383.29,272.63,383.06,272.63z"/>
			</g>
		</g>
		<g id="XMLID_15910_">
			<g id="XMLID_15912_">
				<path class="st1" d="M383.31,267.99c0,0,1.03-3.01,4.85-8.87c6.64-10.18,17.47-14.63,22.21-20.45
					c5.11-6.28-3.72-10.16-11.64-7.96c-4.54,1.26-8.68,5.4-10.85,8.19c-7.61,9.8-7.55,20.99-7.55,20.99L383.31,267.99z"/>
			</g>
			<g id="XMLID_15911_">
				<path class="st3" d="M381.81,268.28c0,0-0.01,0-0.02,0c-0.3-0.01-0.54-0.26-0.53-0.56c0-0.09,0.33-9.53,5.5-18.84
					c5.99-10.78,14.9-14.6,15.28-14.76c0.27-0.12,0.59,0.01,0.71,0.29c0.12,0.28-0.01,0.6-0.29,0.71
					c-0.09,0.04-8.95,3.86-14.75,14.29c-5.05,9.08-5.36,18.25-5.37,18.35C382.35,268.04,382.11,268.28,381.81,268.28z"/>
			</g>
		</g>
	</g>
	<g id="XMLID_15855_">
		<g id="XMLID_15856_">
			<path class="st1" d="M91.04,277.05c-7.19-4.84-7.51-17.84-6.47-26.02c1.65-12.98-5.02-16.01-8.39-10.26
				c-1.64,2.8-3.7,8.85-3.46,15.91c0.37,11.06,5.16,24.29,16.76,29.09L91.04,277.05z"/>
			<path class="st2" d="M91.04,277.05c-7.19-4.84-7.51-17.84-6.47-26.02c1.65-12.98-5.02-16.01-8.39-10.26
				c-1.64,2.8-3.7,8.85-3.46,15.91c0.37,11.06,5.16,24.29,16.76,29.09L91.04,277.05z"/>
		</g>
		<g id="XMLID_15857_">
			<path class="st3" d="M89.56,285.02c-0.12,0-0.23-0.04-0.33-0.12c-12.17-10.41-14.08-29.01-10.69-41.89
				c0.07-0.27,0.34-0.43,0.61-0.36c0.27,0.07,0.43,0.34,0.36,0.61c-3.31,12.59-1.47,30.75,10.38,40.88c0.21,0.18,0.23,0.5,0.05,0.71
				C89.84,284.97,89.7,285.02,89.56,285.02z"/>
		</g>
	</g>
	<g id="XMLID_15848_">
		<g id="XMLID_15851_">
			<path class="st1" d="M101.84,301c-6.26,4.49-20.64,8.38-25.33,0.68c-4.35-7.16-1.44-10.3-10.27-9.06
				c-8.83,1.24-10.86-5.62-8.77-11.38c2.09-5.76-6.61-14.19-0.26-20.73c6.35-6.54,10.04,7.06,13.68,8.53
				c3.65,1.47,5.93-1.7,10.17,0.61c4.24,2.31,4.64,11.75,8.77,11.94c6.77,0.3,18.15,0.26,18.98,6.29
				C109.67,293.91,101.84,301,101.84,301z"/>
		</g>
		<g id="XMLID_15852_">
			<path class="st3" d="M104.44,298.4c-0.02,0-0.03,0-0.05,0c-32.75-3.42-45.42-31.97-46.2-36.16c-0.05-0.27,0.13-0.53,0.4-0.58
				c0.27-0.05,0.53,0.13,0.58,0.4c0.76,4.09,13.17,31.99,45.32,35.35c0.27,0.03,0.47,0.27,0.45,0.55
				C104.91,298.21,104.69,298.4,104.44,298.4z"/>
		</g>
		<g id="XMLID_15853_">
			<path class="st3" d="M68.63,285.6c-3.32,0-6-0.47-6.17-0.5c-0.27-0.05-0.45-0.31-0.4-0.58c0.05-0.27,0.31-0.45,0.58-0.4
				c0.06,0.01,6.15,1.07,11.29-0.01c0.27-0.05,0.54,0.12,0.59,0.39c0.06,0.27-0.12,0.54-0.39,0.59
				C72.29,285.47,70.37,285.6,68.63,285.6z"/>
		</g>
		<g id="XMLID_15854_">
			<path class="st3" d="M78.4,288.59c-0.04,0-0.07,0-0.11-0.01c-0.27-0.06-0.44-0.33-0.38-0.6c1.67-7.4,0.72-13.52,0.71-13.58
				c-0.04-0.27,0.14-0.53,0.41-0.57c0.27-0.05,0.53,0.14,0.57,0.41c0.04,0.26,0.99,6.35-0.72,13.96
				C78.83,288.43,78.62,288.59,78.4,288.59z"/>
		</g>
	</g>
</g>
<g id="Icons">
	<g>
		<g id="XMLID_15872_">
			<g id="XMLID_15903_">
				<path class="st1" d="M17.11,249.46l15.69-9.06c1.35-0.78,3.53-0.78,4.87,0l1.98,1.15c1.35,0.78,2.44,2.66,2.44,4.22v18.12
					c0,1.55-1.09,3.44-2.44,4.22l-15.69,9.06c-1.35,0.78-3.53,0.78-4.87,0l-1.98-1.15c-1.34-0.78-2.44-2.67-2.44-4.22v-18.12
					C14.67,252.13,15.76,250.24,17.11,249.46z"/>
				<path class="st4" d="M17.11,249.46l15.69-9.06c1.35-0.78,3.53-0.78,4.87,0l1.98,1.15c1.35,0.78,2.44,2.66,2.44,4.22v18.12
					c0,1.55-1.09,3.44-2.44,4.22l-15.69,9.06c-1.35,0.78-3.53,0.78-4.87,0l-1.98-1.15c-1.34-0.78-2.44-2.67-2.44-4.22v-18.12
					C14.67,252.13,15.76,250.24,17.11,249.46z"/>
			</g>
			<g id="XMLID_15902_">
				<path class="st1" d="M42.09,245.77c0-1.55-1.09-2.18-2.44-1.41l-15.69,9.06c-1.35,0.78-2.44,2.67-2.44,4.22l0,18.12
					c0,1.55,1.09,2.18,2.44,1.41l15.69-9.06c1.35-0.78,2.44-2.67,2.44-4.22V245.77z"/>
			</g>
			<g id="XMLID_15901_">
				<path class="st1" d="M14.67,271.8c0,1.55,1.09,3.44,2.44,4.22l1.98,1.15c1.22,0.7,3.11,0.76,4.45,0.2
					c-1.15,0.43-2.02-0.21-2.02-1.6l0-18.12c0-0.78,0.27-1.64,0.71-2.4l-6.85-3.96c-0.44,0.76-0.71,1.62-0.71,2.4V271.8z"/>
				<path class="st5" d="M14.67,271.8c0,1.55,1.09,3.44,2.44,4.22l1.98,1.15c1.22,0.7,3.11,0.76,4.45,0.2
					c-1.15,0.43-2.02-0.21-2.02-1.6l0-18.12c0-0.78,0.27-1.64,0.71-2.4l-6.85-3.96c-0.44,0.76-0.71,1.62-0.71,2.4V271.8z"/>
			</g>
		</g>
		<g id="XMLID_15569_">
			<path class="st3" d="M25.17,258.88l13.34-7.74c0.36-0.21,0.65-0.04,0.65,0.37v9.05c0,0.41-0.29,0.92-0.65,1.13l-13.34,7.74
				c-0.36,0.21-0.65,0.04-0.65-0.37v-9.05C24.52,259.59,24.81,259.09,25.17,258.88z"/>
		</g>
		<g id="XMLID_15846_">
			<polygon class="st6" points="24.52,259.26 32.49,261.84 39.16,250.77 32.71,262.77 			"/>
		</g>
	</g>
	<g>
		<g id="XMLID_15866_">
			<g id="XMLID_15871_">
				<path class="st1" d="M17.11,203.73l15.69-9.06c1.35-0.78,3.53-0.78,4.87,0l1.98,1.15c1.35,0.78,2.44,2.67,2.44,4.22l0,18.12
					c0,1.55-1.09,3.44-2.44,4.22l-15.69,9.06c-1.35,0.78-3.53,0.78-4.87,0l-1.98-1.15c-1.35-0.78-2.44-2.66-2.44-4.22v-18.12
					C14.67,206.39,15.76,204.5,17.11,203.73z"/>
				<path class="st4" d="M17.11,203.73l15.69-9.06c1.35-0.78,3.53-0.78,4.87,0l1.98,1.15c1.35,0.78,2.44,2.67,2.44,4.22l0,18.12
					c0,1.55-1.09,3.44-2.44,4.22l-15.69,9.06c-1.35,0.78-3.53,0.78-4.87,0l-1.98-1.15c-1.35-0.78-2.44-2.66-2.44-4.22v-18.12
					C14.67,206.39,15.76,204.5,17.11,203.73z"/>
			</g>
			<g id="XMLID_15870_">
				<path class="st1" d="M42.09,200.03c0-1.55-1.09-2.18-2.44-1.41l-15.69,9.06c-1.35,0.78-2.44,2.67-2.44,4.22v18.12
					c0,1.55,1.09,2.18,2.44,1.41l15.69-9.06c1.35-0.78,2.44-2.67,2.44-4.22L42.09,200.03z"/>
			</g>
			<g id="XMLID_15869_">
				<path class="st1" d="M14.67,226.07c0,1.55,1.09,3.44,2.44,4.22l1.98,1.15c1.22,0.7,3.11,0.76,4.46,0.2
					c-1.15,0.43-2.02-0.21-2.02-1.6V211.9c0-0.78,0.27-1.64,0.71-2.4l-6.85-3.96c-0.44,0.76-0.71,1.62-0.71,2.4V226.07z"/>
				<path class="st5" d="M14.67,226.07c0,1.55,1.09,3.44,2.44,4.22l1.98,1.15c1.22,0.7,3.11,0.76,4.46,0.2
					c-1.15,0.43-2.02-0.21-2.02-1.6V211.9c0-0.78,0.27-1.64,0.71-2.4l-6.85-3.96c-0.44,0.76-0.71,1.62-0.71,2.4V226.07z"/>
			</g>
		</g>
		<g id="XMLID_15847_">
			<g id="XMLID_15864_">
				<path class="st3" d="M31.66,221.99l-1.67-0.13c-2.2-0.18-4.82-1.04-4.82-4.19c0-2.13,1.49-4.72,3.34-5.78
					c1.44-0.83,2.66-0.49,3.13,0.71c0.47-1.74,1.7-3.5,3.13-4.33c1.84-1.06,3.34-0.2,3.34,1.93c0,3.08-2.61,6.99-4.79,9.72
					L31.66,221.99z"/>
			</g>
		</g>
	</g>
	<g>
		<g id="XMLID_15904_">
			<g id="XMLID_15909_">
				<path class="st1" d="M17.11,158.01l15.69-9.06c1.35-0.78,3.53-0.78,4.87,0l1.98,1.14c1.35,0.78,2.44,2.67,2.44,4.22v18.12
					c0,1.55-1.09,3.44-2.44,4.22l-15.69,9.06c-1.35,0.78-3.53,0.78-4.87,0l-1.98-1.15c-1.34-0.78-2.44-2.66-2.44-4.22v-18.12
					C14.67,160.67,15.76,158.78,17.11,158.01z"/>
				<path class="st4" d="M17.11,158.01l15.69-9.06c1.35-0.78,3.53-0.78,4.87,0l1.98,1.14c1.35,0.78,2.44,2.67,2.44,4.22v18.12
					c0,1.55-1.09,3.44-2.44,4.22l-15.69,9.06c-1.35,0.78-3.53,0.78-4.87,0l-1.98-1.15c-1.34-0.78-2.44-2.66-2.44-4.22v-18.12
					C14.67,160.67,15.76,158.78,17.11,158.01z"/>
			</g>
			<g id="XMLID_15908_">
				<path class="st1" d="M23.96,185.71c-1.35,0.78-2.44,0.15-2.44-1.41l0-18.12c0-1.55,1.09-3.44,2.44-4.22l15.69-9.06
					c1.35-0.78,2.44-0.15,2.44,1.41v18.12c0,1.55-1.09,3.44-2.44,4.22"/>
			</g>
			<g id="XMLID_15907_">
				<path class="st1" d="M14.67,180.35c0,1.55,1.09,3.44,2.44,4.22l1.98,1.15c1.22,0.7,3.11,0.76,4.45,0.2
					c-1.15,0.43-2.02-0.21-2.02-1.6l0-18.12c0-0.78,0.27-1.64,0.71-2.4l-6.85-3.96c-0.44,0.76-0.71,1.62-0.71,2.4V180.35z"/>
				<path class="st5" d="M14.67,180.35c0,1.55,1.09,3.44,2.44,4.22l1.98,1.15c1.22,0.7,3.11,0.76,4.45,0.2
					c-1.15,0.43-2.02-0.21-2.02-1.6l0-18.12c0-0.78,0.27-1.64,0.71-2.4l-6.85-3.96c-0.44,0.76-0.71,1.62-0.71,2.4V180.35z"/>
			</g>
		</g>
		<g id="XMLID_15867_">
			<g id="XMLID_15873_">
				<path class="st3" d="M28.95,169.07c0,0,1.83-4.22,2.01-4.83c0.17-0.61-0.01-2.74-0.01-3.14c0-0.41,1.67-1.53,2.2-0.37
					c0.53,1.16,0.58,2.35,0.28,3.9l4.07-2.37c0.86-0.5,1.21,0.21,1.22,0.76c0,0.79-0.43,1.47-0.65,1.75c0,0,0.81-0.25,0.82,0.84
					c0,0.61-0.37,1.48-0.98,2c0,0,0.27,0.2,0.27,0.96c0,0.51-0.57,1.7-1.14,2.04c0,0,0.18,0.35,0.18,0.96
					c0,0.73-0.61,1.83-1.49,2.34c-0.88,0.51-6.73,3.93-6.73,3.93L28.95,169.07z"/>
			</g>
			<g id="XMLID_15868_">
				<polygon class="st3" points="25.09,181.29 28.02,179.58 27.98,169.38 25.04,171.09 				"/>
			</g>
		</g>
	</g>
	<g id="XMLID_15863_">
		<g id="XMLID_15880_">
			<g id="XMLID_15883_">
				<path class="st1" d="M8.52,104.49L32.57,90.6c2.06-1.19,5.41-1.19,7.47,0l3.04,1.76c2.06,1.19,3.73,4.09,3.73,6.47l0,27.78
					c0,2.38-1.67,5.28-3.73,6.47l-24.06,13.89c-2.06,1.19-5.41,1.19-7.47,0l-3.04-1.76c-2.06-1.19-3.73-4.09-3.73-6.47v-27.78
					C4.78,108.58,6.45,105.68,8.52,104.49z"/>
				<path class="st5" d="M8.52,104.49L32.57,90.6c2.06-1.19,5.41-1.19,7.47,0l3.04,1.76c2.06,1.19,3.73,4.09,3.73,6.47l0,27.78
					c0,2.38-1.67,5.28-3.73,6.47l-24.06,13.89c-2.06,1.19-5.41,1.19-7.47,0l-3.04-1.76c-2.06-1.19-3.73-4.09-3.73-6.47v-27.78
					C4.78,108.58,6.45,105.68,8.52,104.49z"/>
			</g>
			<g id="XMLID_15875_">
				<path class="st1" d="M46.81,98.65c0-1.38-0.68-4.84-4.24-2.65c-3.56,2.19-21.11,12.1-23.52,13.54
					c-1.86,1.11-3.07,2.47-3.76,4.13l1.91,1.92L46.81,98.65z"/>
				<path class="st2" d="M46.81,98.65c0-1.38-0.68-4.84-4.24-2.65c-3.56,2.19-21.11,12.1-23.52,13.54
					c-1.86,1.11-3.07,2.47-3.76,4.13l1.91,1.92L46.81,98.65z"/>
			</g>
			<g id="XMLID_15882_">
				<path class="st1" d="M19.02,146.96c-2.06,1.19-3.73,0.23-3.73-2.16l0-27.78c0-2.38,1.67-5.28,3.73-6.47l24.06-13.89
					c2.06-1.19,3.73-0.23,3.73,2.16l0,27.78c0,2.38-1.67,5.28-3.73,6.47"/>
				<path class="st5" d="M19.02,146.96c-2.06,1.19-3.73,0.23-3.73-2.16l0-27.78c0-2.38,1.67-5.28,3.73-6.47l24.06-13.89
					c2.06-1.19,3.73-0.23,3.73,2.16l0,27.78c0,2.38-1.67,5.28-3.73,6.47"/>
			</g>
			<g id="XMLID_15881_">
				<path class="st1" d="M4.78,138.74c0,2.38,1.67,5.28,3.73,6.47l3.04,1.76c1.86,1.08,4.76,1.17,6.83,0.3
					c-1.76,0.66-3.1-0.33-3.1-2.46l0-27.78c0-1.19,0.42-2.51,1.09-3.68l-10.51-6.07c-0.68,1.17-1.09,2.49-1.09,3.68V138.74z"/>
				<path class="st2" d="M4.78,138.74c0,2.38,1.67,5.28,3.73,6.47l3.04,1.76c1.86,1.08,4.76,1.17,6.83,0.3
					c-1.76,0.66-3.1-0.33-3.1-2.46l0-27.78c0-1.19,0.42-2.51,1.09-3.68l-10.51-6.07c-0.68,1.17-1.09,2.49-1.09,3.68V138.74z"/>
			</g>
		</g>
		<g id="XMLID_15862_">
			<path class="st3" d="M31.77,107.31l3.12,5.5l6.98-2.86c0.66-0.27,0.92,0.51,0.45,1.33l-5.05,8.61l1.19,7.34
				c0.11,0.69-0.58,1.67-1.17,1.65l-6.25-0.19l-6.25,7.4c-0.59,0.7-1.28,0.52-1.17-0.31l1.19-8.72l-5.05-2.77
				c-0.48-0.26-0.21-1.35,0.45-1.84l6.98-5.2l3.12-9.11C30.63,107.28,31.48,106.79,31.77,107.31z"/>
		</g>
	</g>
</g>
<g id="Shadow">
	<g id="XMLID_15961_">
		<path class="st6" d="M370,234.22c-11.98,5.71-31.4,5.71-43.38,0c-11.98-5.71-11.98-14.96,0-20.67c11.98-5.71,31.4-5.71,43.38,0
			C381.97,219.25,381.97,228.51,370,234.22z"/>
	</g>
</g>
<g id="Device">
	<g id="XMLID_15860_">
		<g id="XMLID_15587_">
			<path class="st7" d="M97.24,300.51c0,2.59,1.94,5.81,4.33,7.19l121.33,70.05c2.39,1.38,6.27,1.38,8.66,0l166.01-95.84
				c2.39-1.38,4.33-4.6,4.33-7.19c0-2.59-1.94-5.81-4.33-7.19l-121.33-70.05c-2.39-1.38-6.27-1.38-8.66,0l-166.01,95.84
				C99.17,294.7,97.24,297.92,97.24,300.51z"/>
		</g>
		<g id="XMLID_15874_">
			<path class="st8" d="M147.29,266.92l-45.73,26.4c-2.39,1.38-4.33,4.6-4.33,7.19c0,2.59,1.94,5.81,4.33,7.19l121.33,70.05
				c1.2,0.69,2.76,1.04,4.33,1.04V266.92H147.29z"/>
		</g>
		<g id="XMLID_15585_">
			<path class="st9" d="M93.17,293.47c-2.24-1.29-4.06-4.58-4.06-7.34l0-144.79c0-2.76,1.94-6.12,4.33-7.5L259.45,38
				c2.39-1.38,6.15-1.45,8.39-0.15c2.24,1.3,4.06,4.58,4.06,7.35v144.78c0,2.76-1.94,6.12-4.33,7.5l-166.01,95.84
				C99.17,294.7,95.42,294.77,93.17,293.47z"/>
		</g>
		<g id="XMLID_15592_">
			<path class="st8" d="M109.42,148.07l-19.04-10.99c-0.78,1.36-1.27,2.89-1.27,4.27l0,144.79c0,2.76,1.82,6.05,4.06,7.34
				c2.24,1.3,6,1.23,8.39-0.15l18.94-10.93L109.42,148.07z"/>
		</g>
		<g id="XMLID_15584_">
			<path class="st7" d="M97.24,146.03v144.79c0,2.76,1.94,3.88,4.33,2.5l166.01-95.84c2.39-1.38,4.33-4.74,4.33-7.5V45.19
				c0-2.76-1.94-3.88-4.33-2.5l-166.01,95.84C99.17,139.91,97.24,143.27,97.24,146.03z"/>
		</g>
		<g id="XMLID_15586_">
			<path class="st9" d="M101.57,298.32l121.33,70.05c2.39,1.38,6.27,1.38,8.66,0l166.01-95.84c2.39-1.38,2.39-3.62,0-5
				l-121.33-70.05c-2.39-1.38-6.27-1.38-8.66,0l-166.01,95.84C99.17,294.7,99.17,296.93,101.57,298.32z"/>
		</g>
		<g id="XMLID_15588_">
			<path class="st3" d="M103.89,146.57l161.35-93.15c1.43-0.83,2.6-0.16,2.6,1.5v125.33c0,1.66-1.16,3.67-2.6,4.5L103.89,277.9
				c-1.43,0.83-2.6,0.16-2.6-1.5V151.07C101.3,149.41,102.46,147.39,103.89,146.57z"/>
		</g>
		<g id="XMLID_15589_">
			<path class="st8" d="M115.65,294.57l154.09-88.96c1.2-0.69,3.13-0.69,4.33,0l7.88,4.55c1.2,0.69,1.2,1.81,0,2.5L127.84,301.6
				c-1.2,0.69-3.13,0.69-4.33,0l-7.86-4.54C114.45,296.38,114.45,295.26,115.65,294.57z"/>
		</g>
		<g id="XMLID_15590_">
			<path class="st8" d="M135.96,306.29l154.09-88.96c1.2-0.69,3.13-0.69,4.33,0l48.48,27.99c1.2,0.69,1.2,1.81,0,2.5l-153.91,88.84
				c-1.2,0.69-3.14,0.69-4.33,0.01l-48.64-27.88C134.77,308.1,134.77,306.98,135.96,306.29z"/>
		</g>
		<g id="XMLID_15605_">
			<path class="st6" d="M274.09,257.35l4.82-2.79c0.21-0.12,0.19-0.32-0.03-0.45l-5.58-3.22c-0.22-0.13-0.56-0.13-0.77-0.02
				l-4.82,2.79c-0.21,0.12-0.19,0.32,0.03,0.44l5.58,3.22C273.54,257.47,273.88,257.47,274.09,257.35z M264.57,246.29l-4.82,2.79
				c-0.21,0.12-0.19,0.32,0.03,0.45l5.58,3.22c0.22,0.13,0.56,0.13,0.77,0.02l4.82-2.79c0.21-0.12,0.19-0.32-0.03-0.44l-5.58-3.22
				C265.12,246.17,264.77,246.17,264.57,246.29z M248.98,255.29l-8.16,4.71c-0.21,0.12-0.19,0.32,0.03,0.44l5.58,3.22
				c0.22,0.13,0.56,0.13,0.77,0.02l8.16-4.71c0.21-0.12,0.19-0.32-0.03-0.44l-5.58-3.22C249.53,255.17,249.18,255.17,248.98,255.29z
				 M257.52,250.36l-4.83,2.79c-0.2,0.12-0.19,0.32,0.03,0.44l5.58,3.22c0.22,0.13,0.57,0.13,0.77,0.02l4.82-2.79
				c0.21-0.12,0.19-0.32-0.03-0.45l-5.58-3.22C258.07,250.25,257.72,250.24,257.52,250.36z M238.59,261.28l-4.83,2.79
				c-0.2,0.12-0.19,0.32,0.03,0.44l5.58,3.22c0.22,0.13,0.56,0.13,0.77,0.02l4.82-2.79c0.21-0.12,0.19-0.32-0.03-0.44l-5.58-3.22
				C239.14,261.17,238.79,261.17,238.59,261.28z M231.54,265.36l-4.82,2.79c-0.21,0.12-0.19,0.32,0.03,0.44l5.58,3.22
				c0.22,0.13,0.56,0.13,0.77,0.02l4.83-2.79c0.21-0.12,0.19-0.32-0.03-0.44l-5.58-3.22C232.09,265.24,231.74,265.24,231.54,265.36z
				 M253.48,278.45l4.82-2.79c0.2-0.12,0.19-0.32-0.03-0.44L252.7,272c-0.22-0.13-0.56-0.13-0.77-0.02l-4.82,2.79
				c-0.21,0.12-0.19,0.32,0.03,0.45l5.58,3.22C252.93,278.56,253.28,278.57,253.48,278.45z M246.43,282.52l4.83-2.79
				c0.21-0.12,0.19-0.32-0.03-0.44l-5.58-3.22c-0.22-0.13-0.56-0.13-0.77-0.02l-4.83,2.79c-0.21,0.12-0.19,0.32,0.03,0.44l5.58,3.22
				C245.88,282.64,246.23,282.64,246.43,282.52z M239.38,286.6l4.83-2.79c0.21-0.12,0.19-0.32-0.03-0.44l-5.58-3.22
				c-0.22-0.13-0.56-0.13-0.77-0.02l-4.82,2.79c-0.21,0.12-0.19,0.32,0.03,0.44l5.58,3.22C238.83,286.71,239.17,286.71,239.38,286.6
				z M232.33,290.67l4.82-2.79c0.21-0.12,0.19-0.32-0.03-0.44l-5.58-3.22c-0.22-0.13-0.56-0.13-0.77-0.02l-4.83,2.79
				c-0.21,0.12-0.19,0.32,0.03,0.44l5.58,3.22C231.78,290.78,232.12,290.79,232.33,290.67z M267.04,261.43l4.82-2.79
				c0.21-0.12,0.19-0.32-0.03-0.44l-5.58-3.22c-0.22-0.13-0.56-0.13-0.77-0.02l-4.82,2.79c-0.21,0.12-0.19,0.32,0.03,0.44l5.58,3.22
				C266.49,261.54,266.83,261.54,267.04,261.43z M260.53,274.38l10.76-6.21c0.21-0.12,0.19-0.32-0.03-0.44l-13.55-7.82
				c-0.22-0.13-0.56-0.13-0.77-0.02l-5.57,3.21c-0.21,0.12-0.19,0.32,0.03,0.44l7.17,4.14c0.22,0.13,0.23,0.33,0.03,0.44l-4.45,2.57
				c-0.21,0.12-0.19,0.32,0.03,0.44l5.58,3.22C259.98,274.49,260.33,274.5,260.53,274.38z M224.49,269.43l-4.83,2.79
				c-0.21,0.12-0.19,0.32,0.03,0.44l5.58,3.22c0.22,0.13,0.56,0.13,0.77,0.02l4.82-2.79c0.21-0.12,0.19-0.32-0.03-0.44l-5.58-3.22
				C225.04,269.31,224.69,269.31,224.49,269.43z M217.43,273.5l-4.82,2.79c-0.21,0.12-0.19,0.32,0.03,0.45l5.58,3.22
				c0.22,0.13,0.56,0.13,0.77,0.02l4.83-2.79c0.21-0.12,0.19-0.32-0.03-0.44l-5.58-3.22C217.98,273.39,217.64,273.38,217.43,273.5z
				 M182.2,319.15c0.22,0.13,0.56,0.13,0.77,0.02l4.82-2.79c0.2-0.12,0.19-0.32-0.03-0.44l-5.58-3.22
				c-0.22-0.13-0.57-0.13-0.77-0.02l-4.82,2.79c-0.21,0.12-0.19,0.32,0.03,0.44L182.2,319.15z M161.02,306.07l-4.82,2.79
				c-0.21,0.12-0.19,0.32,0.03,0.44l5.58,3.22c0.22,0.13,0.56,0.13,0.77,0.02l4.82-2.79c0.21-0.12,0.19-0.32-0.03-0.44l-5.58-3.22
				C161.57,305.96,161.23,305.95,161.02,306.07z M172.37,315.62c0.22,0.13,0.56,0.13,0.77,0.02l4.82-2.79
				c0.21-0.12,0.19-0.32-0.03-0.44l-5.58-3.22c-0.22-0.13-0.56-0.13-0.77-0.02l-4.82,2.79c-0.21,0.12-0.19,0.32,0.03,0.44
				L172.37,315.62z M194.65,321.62l4.82-2.79c0.21-0.12,0.19-0.32-0.03-0.44l-5.58-3.22c-0.22-0.13-0.56-0.13-0.77-0.01l-4.82,2.79
				c-0.2,0.12-0.19,0.32,0.03,0.44l5.58,3.22C194.1,321.73,194.44,321.74,194.65,321.62z M186.83,325.68
				c0.22,0.13,0.56,0.13,0.77,0.02l4.82-2.79c0.21-0.12,0.19-0.32-0.03-0.44l-5.58-3.22c-0.22-0.13-0.56-0.13-0.77-0.02l-4.82,2.79
				c-0.2,0.12-0.19,0.32,0.03,0.44L186.83,325.68z M168.08,302l-4.82,2.79c-0.21,0.12-0.19,0.32,0.03,0.44l5.58,3.22
				c0.22,0.13,0.56,0.13,0.77,0.02l4.82-2.79c0.21-0.12,0.19-0.32-0.03-0.44l-5.58-3.22C168.63,301.88,168.28,301.88,168.08,302z
				 M203.33,281.64l-4.82,2.79c-0.2,0.12-0.19,0.32,0.03,0.44l5.58,3.22c0.22,0.13,0.56,0.13,0.77,0.02l4.82-2.79
				c0.21-0.12,0.19-0.32-0.03-0.44l-5.58-3.22C203.88,281.53,203.54,281.52,203.33,281.64z M175.13,297.92l-4.82,2.79
				c-0.21,0.12-0.19,0.32,0.03,0.44l5.58,3.22c0.22,0.13,0.56,0.13,0.77,0.02l4.82-2.79c0.21-0.12,0.19-0.32-0.03-0.44l-5.58-3.22
				C175.68,297.81,175.33,297.81,175.13,297.92z M210.38,277.57l-4.82,2.79c-0.21,0.12-0.19,0.32,0.03,0.44l5.58,3.22
				c0.22,0.13,0.56,0.13,0.77,0.02l4.82-2.79c0.21-0.12,0.19-0.32-0.03-0.44l-5.58-3.22C210.93,277.46,210.59,277.45,210.38,277.57z
				 M196.28,285.71l-4.82,2.79c-0.21,0.12-0.19,0.32,0.03,0.44l5.58,3.22c0.22,0.13,0.56,0.13,0.77,0.02l4.82-2.79
				c0.21-0.12,0.19-0.32-0.03-0.44l-5.58-3.22C196.83,285.6,196.49,285.59,196.28,285.71z M189.23,289.78l-4.82,2.79
				c-0.21,0.12-0.19,0.32,0.03,0.44l5.58,3.22c0.22,0.13,0.56,0.13,0.77,0.02l4.82-2.79c0.2-0.12,0.19-0.32-0.03-0.44L190,289.8
				C189.78,289.67,189.43,289.66,189.23,289.78z M182.18,293.85l-4.82,2.79c-0.21,0.12-0.19,0.32,0.03,0.45l5.58,3.22
				c0.22,0.13,0.57,0.13,0.77,0.02l4.83-2.79c0.2-0.12,0.19-0.32-0.03-0.44l-5.58-3.22C182.73,293.74,182.38,293.73,182.18,293.85z
				 M218.23,298.81l4.82-2.79c0.21-0.12,0.19-0.32-0.03-0.44l-5.58-3.22c-0.22-0.13-0.57-0.13-0.77-0.02l-4.83,2.79
				c-0.21,0.12-0.19,0.32,0.03,0.45l5.58,3.22C217.68,298.92,218.02,298.93,218.23,298.81z M280.15,237.29l-4.83,2.79
				c-0.21,0.12-0.19,0.32,0.03,0.44l5.58,3.22c0.22,0.13,0.56,0.13,0.77,0.02l4.83-2.79c0.21-0.12,0.19-0.32-0.03-0.45l-5.58-3.22
				C280.7,237.18,280.36,237.17,280.15,237.29z M271.62,242.21l-4.82,2.79c-0.21,0.12-0.19,0.32,0.03,0.44l5.58,3.22
				c0.22,0.13,0.56,0.13,0.77,0.02l4.83-2.79c0.2-0.12,0.19-0.32-0.03-0.44l-5.58-3.22C272.17,242.1,271.82,242.1,271.62,242.21z
				 M287.21,233.22l-4.82,2.79c-0.21,0.12-0.19,0.32,0.03,0.44l5.58,3.22c0.22,0.13,0.56,0.13,0.77,0.02l4.83-2.79
				c0.21-0.12,0.19-0.32-0.03-0.44l-5.58-3.22C287.76,233.1,287.41,233.1,287.21,233.22z M250.71,270.85l4.82-2.79
				c0.21-0.12,0.19-0.32-0.03-0.44l-5.58-3.22c-0.22-0.13-0.56-0.13-0.77-0.02l-4.83,2.79c-0.21,0.12-0.19,0.32,0.03,0.44l5.58,3.22
				C250.16,270.96,250.5,270.97,250.71,270.85z M295.03,229.16c-0.22-0.13-0.57-0.13-0.77-0.02l-4.82,2.79
				c-0.21,0.12-0.19,0.32,0.03,0.44l5.58,3.22c0.22,0.13,0.56,0.13,0.77,0.02l4.82-2.79c0.21-0.12,0.19-0.32-0.03-0.44
				L295.03,229.16z M225.28,294.74l4.83-2.79c0.21-0.12,0.19-0.32-0.03-0.44l-5.58-3.22c-0.22-0.13-0.56-0.13-0.77-0.02l-4.82,2.79
				c-0.21,0.12-0.19,0.32,0.03,0.44l5.58,3.22C224.73,294.85,225.07,294.86,225.28,294.74z M311.75,244.81l4.82-2.79
				c0.2-0.12,0.19-0.32-0.03-0.44l-5.58-3.22c-0.22-0.13-0.56-0.13-0.77-0.02l-4.82,2.79c-0.2,0.12-0.19,0.32,0.03,0.44l5.58,3.22
				C311.2,244.92,311.54,244.93,311.75,244.81z M296.73,244.28l4.82-2.79c0.21-0.12,0.19-0.32-0.03-0.44l-5.58-3.22
				c-0.22-0.13-0.56-0.13-0.77-0.02l-4.82,2.79c-0.21,0.12-0.19,0.32,0.03,0.44l5.58,3.22C296.18,244.39,296.52,244.4,296.73,244.28
				z M303,233.76c-0.22-0.13-0.56-0.13-0.77-0.02l-4.83,2.79c-0.2,0.12-0.19,0.32,0.03,0.44l5.58,3.22
				c0.22,0.13,0.56,0.13,0.77,0.02l4.82-2.79c0.21-0.12,0.19-0.32-0.03-0.44L303,233.76z M304.48,232.9l13.55,7.82
				c0.22,0.13,0.56,0.13,0.77,0.02l4.83-2.79c0.21-0.12,0.19-0.32-0.03-0.44l-13.55-7.82c-0.22-0.13-0.56-0.13-0.77-0.02l-4.82,2.79
				C304.25,232.58,304.26,232.78,304.48,232.9z M288.12,241.89l-4.83,2.79c-0.21,0.12-0.19,0.32,0.03,0.44l5.58,3.22
				c0.22,0.13,0.56,0.13,0.77,0.02l4.82-2.79c0.21-0.12,0.19-0.32-0.03-0.44l-5.58-3.22C288.67,241.78,288.33,241.77,288.12,241.89z
				 M235.05,272.53l-4.83,2.79c-0.21,0.12-0.19,0.32,0.03,0.44l5.58,3.22c0.22,0.13,0.56,0.13,0.77,0.02l4.82-2.79
				c0.21-0.12,0.19-0.32-0.03-0.44l-5.58-3.22C235.6,272.42,235.26,272.41,235.05,272.53z M303.93,248.87
				c0.22,0.13,0.56,0.13,0.77,0.02l4.82-2.79c0.21-0.12,0.19-0.32-0.03-0.44l-5.58-3.22c-0.22-0.13-0.56-0.13-0.77-0.02l-4.82,2.79
				c-0.21,0.12-0.19,0.32,0.03,0.44L303.93,248.87z M242.1,268.46l-4.82,2.79c-0.21,0.12-0.19,0.32,0.03,0.44l5.58,3.22
				c0.22,0.13,0.57,0.13,0.77,0.02l4.83-2.79c0.21-0.12,0.19-0.32-0.03-0.44l-5.58-3.22C242.65,268.35,242.31,268.34,242.1,268.46z
				 M189.25,315.08c0.22,0.13,0.56,0.13,0.77,0.02l4.82-2.79c0.2-0.12,0.19-0.32-0.03-0.44l-5.58-3.22
				c-0.22-0.13-0.56-0.13-0.77-0.02l-4.82,2.79c-0.21,0.12-0.19,0.32,0.03,0.44L189.25,315.08z M178.64,305.1l-4.82,2.79
				c-0.21,0.12-0.19,0.32,0.03,0.44l5.58,3.22c0.22,0.13,0.56,0.13,0.77,0.02l4.82-2.79c0.21-0.12,0.19-0.32-0.03-0.44l-5.58-3.22
				C179.19,304.98,178.85,304.98,178.64,305.1z M197.07,311.02l4.82-2.79c0.21-0.12,0.19-0.32-0.03-0.44l-5.58-3.22
				c-0.22-0.13-0.56-0.13-0.77-0.02l-4.82,2.79c-0.2,0.12-0.19,0.32,0.03,0.44l5.58,3.22C196.52,311.13,196.87,311.14,197.07,311.02
				z M204.12,306.95l4.82-2.79c0.21-0.12,0.19-0.32-0.03-0.44l-5.58-3.22c-0.22-0.13-0.56-0.13-0.77-0.02l-4.82,2.79
				c-0.2,0.12-0.19,0.32,0.03,0.44l5.58,3.22C203.57,307.06,203.92,307.07,204.12,306.95z M211.17,302.88l4.82-2.79
				c0.2-0.12,0.19-0.32-0.03-0.44l-5.58-3.22c-0.22-0.13-0.56-0.13-0.77-0.02l-4.82,2.79c-0.21,0.12-0.19,0.32,0.03,0.44l5.58,3.22
				C210.62,302.99,210.97,303,211.17,302.88z M185.69,301.03l-4.82,2.79c-0.21,0.12-0.19,0.32,0.03,0.44l5.58,3.22
				c0.22,0.13,0.56,0.13,0.77,0.02l4.82-2.79c0.21-0.12,0.19-0.32-0.03-0.44l-5.58-3.22C186.24,300.91,185.9,300.91,185.69,301.03z
				 M192.75,296.95l-4.82,2.79c-0.21,0.12-0.19,0.32,0.03,0.44l5.58,3.22c0.22,0.13,0.56,0.13,0.77,0.02l4.82-2.79
				c0.2-0.12,0.19-0.32-0.03-0.44l-5.58-3.22C193.3,296.84,192.95,296.84,192.75,296.95z M220.95,280.67l-4.83,2.79
				c-0.21,0.12-0.19,0.32,0.03,0.44l5.58,3.22c0.22,0.13,0.56,0.13,0.77,0.02l4.82-2.79c0.21-0.12,0.19-0.32-0.03-0.44l-5.58-3.22
				C221.5,280.56,221.16,280.55,220.95,280.67z M213.9,284.74l-4.82,2.79c-0.2,0.12-0.19,0.32,0.03,0.44l5.58,3.22
				c0.22,0.13,0.57,0.13,0.77,0.02l4.83-2.79c0.2-0.12,0.19-0.32-0.03-0.44l-5.58-3.22C214.45,284.63,214.1,284.62,213.9,284.74z
				 M228,276.6l-4.82,2.79c-0.21,0.12-0.19,0.32,0.03,0.44l5.58,3.22c0.22,0.13,0.56,0.13,0.77,0.02l4.83-2.79
				c0.21-0.12,0.19-0.32-0.03-0.44l-5.58-3.22C228.55,276.49,228.21,276.48,228,276.6z M199.8,292.88l-4.82,2.79
				c-0.21,0.12-0.19,0.32,0.03,0.44l5.58,3.22c0.22,0.13,0.56,0.13,0.77,0.02l4.82-2.79c0.2-0.12,0.19-0.32-0.03-0.44l-5.58-3.22
				C200.35,292.77,200,292.77,199.8,292.88z M206.85,288.81l-4.82,2.79c-0.2,0.12-0.19,0.32,0.03,0.44l5.58,3.22
				c0.22,0.13,0.56,0.13,0.77,0.02l4.82-2.79c0.21-0.12,0.19-0.32-0.03-0.44l-5.58-3.22C207.4,288.7,207.05,288.69,206.85,288.81z
				 M201.7,317.55l4.82-2.79c0.21-0.12,0.19-0.32-0.03-0.44l-5.58-3.22c-0.22-0.13-0.56-0.13-0.77-0.02l-4.82,2.79
				c-0.21,0.12-0.19,0.32,0.03,0.44l5.58,3.22C201.15,317.66,201.5,317.67,201.7,317.55z M160.32,313.37l-5.58-3.22
				c-0.22-0.13-0.56-0.13-0.77-0.02l-4.82,2.79c-0.21,0.12-0.19,0.32,0.03,0.44l5.58,3.22c0.22,0.13,0.56,0.13,0.77,0.02l4.82-2.79
				C160.55,313.7,160.54,313.5,160.32,313.37z M170.89,316.48l-5.58-3.22c-0.22-0.13-0.56-0.13-0.77-0.02l-7.42,4.29
				c-0.21,0.12-0.19,0.32,0.03,0.44l5.58,3.22c0.22,0.13,0.56,0.13,0.77,0.02l7.42-4.29C171.12,316.8,171.11,316.6,170.89,316.48z
				 M151.76,307.15l-5.58-3.22c-0.22-0.13-0.56-0.13-0.77-0.02l-5.94,3.43c-0.2,0.12-0.19,0.32,0.03,0.44l5.58,3.22
				c0.22,0.13,0.57,0.13,0.77,0.02l5.94-3.43C152,307.47,151.98,307.27,151.76,307.15z M156.32,304.52
				c0.22,0.13,0.56,0.13,0.77,0.02l4.82-2.79c0.21-0.12,0.19-0.32-0.03-0.44l-5.58-3.22c-0.22-0.13-0.56-0.13-0.77-0.02l-4.82,2.79
				c-0.21,0.12-0.19,0.32,0.03,0.44L156.32,304.52z M180.71,320.01l-5.58-3.22c-0.22-0.13-0.56-0.13-0.77-0.02l-9.28,5.36
				c-0.21,0.12-0.19,0.32,0.03,0.44l5.58,3.22c0.22,0.13,0.56,0.13,0.77,0.02l9.28-5.36C180.95,320.33,180.93,320.13,180.71,320.01z
				 M185.34,326.53l-5.58-3.22c-0.22-0.13-0.56-0.13-0.77-0.02l-5.94,3.43c-0.21,0.12-0.19,0.32,0.03,0.44l5.58,3.22
				c0.22,0.13,0.56,0.13,0.77,0.02l5.94-3.43C185.58,326.86,185.56,326.66,185.34,326.53z M208.74,274.25
				c0.22,0.13,0.56,0.13,0.77,0.02l4.82-2.79c0.21-0.12,0.19-0.32-0.03-0.44l-5.58-3.22c-0.22-0.13-0.57-0.13-0.77-0.02l-4.82,2.79
				c-0.21,0.12-0.19,0.32,0.03,0.44L208.74,274.25z M194.64,282.39c0.22,0.13,0.56,0.13,0.77,0.02l4.82-2.79
				c0.21-0.12,0.19-0.32-0.03-0.44l-5.58-3.22c-0.22-0.13-0.56-0.13-0.77-0.02l-4.82,2.79c-0.21,0.12-0.19,0.32,0.03,0.45
				L194.64,282.39z M163.37,300.45c0.22,0.13,0.56,0.13,0.77,0.02l4.82-2.79c0.2-0.12,0.19-0.32-0.03-0.44l-5.58-3.22
				c-0.22-0.13-0.56-0.13-0.77-0.02l-4.82,2.79c-0.21,0.12-0.19,0.32,0.03,0.44L163.37,300.45z M201.69,278.32
				c0.22,0.13,0.56,0.13,0.77,0.02l4.82-2.79c0.2-0.12,0.19-0.32-0.03-0.44l-5.58-3.22c-0.22-0.13-0.56-0.13-0.77-0.02l-4.82,2.79
				c-0.2,0.12-0.19,0.32,0.03,0.44L201.69,278.32z M187.59,286.46c0.22,0.13,0.56,0.13,0.77,0.02l4.82-2.79
				c0.21-0.12,0.19-0.32-0.03-0.45l-5.58-3.22c-0.22-0.13-0.56-0.13-0.77-0.02l-4.82,2.79c-0.21,0.12-0.19,0.32,0.03,0.45
				L187.59,286.46z M189.22,327.06c-0.22-0.13-0.56-0.13-0.77-0.02l-7.42,4.29c-0.21,0.12-0.19,0.32,0.03,0.44l5.58,3.22
				c0.22,0.13,0.56,0.13,0.77,0.02l7.42-4.29c0.21-0.12,0.19-0.32-0.03-0.45L189.22,327.06z M177.47,292.31
				c0.22,0.13,0.56,0.13,0.77,0.02l4.82-2.79c0.21-0.12,0.19-0.32-0.03-0.44l-5.58-3.22c-0.22-0.13-0.56-0.13-0.77-0.02l-4.82,2.79
				c-0.21,0.12-0.19,0.32,0.03,0.44L177.47,292.31z M170.42,296.38c0.22,0.13,0.56,0.13,0.77,0.02l4.82-2.79
				c0.21-0.12,0.19-0.32-0.03-0.44l-5.58-3.22c-0.22-0.13-0.56-0.13-0.77-0.02l-4.83,2.79c-0.2,0.12-0.19,0.32,0.03,0.44
				L170.42,296.38z M319.85,251.64c-0.22-0.13-0.56-0.13-0.77-0.02l-11.88,6.86c-0.21,0.12-0.19,0.32,0.03,0.44l5.58,3.22
				c0.22,0.13,0.56,0.13,0.77,0.02l11.88-6.86c0.2-0.12,0.19-0.32-0.03-0.44L319.85,251.64z M304.27,260.64
				c-0.22-0.13-0.56-0.13-0.77-0.02l-4.83,2.79c-0.2,0.12-0.19,0.32,0.03,0.44l5.58,3.22c0.22,0.13,0.56,0.13,0.77,0.02l4.82-2.79
				c0.21-0.12,0.19-0.32-0.03-0.45L304.27,260.64z M208.75,313.48l4.82-2.79c0.2-0.12,0.19-0.32-0.03-0.45l-5.58-3.22
				c-0.22-0.13-0.56-0.13-0.77-0.02l-4.82,2.79c-0.21,0.12-0.19,0.32,0.03,0.44l5.58,3.22C208.2,313.59,208.55,313.6,208.75,313.48z
				 M290.16,268.78c-0.22-0.13-0.57-0.13-0.77-0.02l-4.82,2.79c-0.21,0.12-0.19,0.32,0.03,0.44l5.58,3.22
				c0.22,0.13,0.56,0.13,0.77,0.02l4.82-2.79c0.21-0.12,0.19-0.32-0.03-0.44L290.16,268.78z M326.9,247.56
				c-0.22-0.13-0.56-0.13-0.77-0.02l-4.82,2.79c-0.21,0.12-0.19,0.32,0.03,0.44l5.58,3.22c0.22,0.13,0.56,0.13,0.77,0.02l4.82-2.79
				c0.21-0.12,0.19-0.32-0.03-0.44L326.9,247.56z M339.54,246.72l-13.55-7.82c-0.22-0.13-0.56-0.13-0.77-0.02l-4.82,2.79
				c-0.21,0.12-0.19,0.32,0.03,0.44l13.55,7.82c0.22,0.13,0.56,0.13,0.77,0.02l4.82-2.79C339.77,247.04,339.76,246.84,339.54,246.72
				z M263.81,283.99c-0.22-0.13-0.57-0.13-0.77-0.02l-5.94,3.43c-0.21,0.12-0.19,0.32,0.03,0.45l5.58,3.22
				c0.22,0.13,0.56,0.13,0.77,0.02l5.94-3.43c0.21-0.12,0.19-0.32-0.03-0.44L263.81,283.99z M281.63,273.71
				c-0.22-0.13-0.56-0.13-0.77-0.02l-7.42,4.29c-0.2,0.12-0.19,0.32,0.03,0.44l5.58,3.22c0.22,0.13,0.56,0.13,0.77,0.02l7.42-4.29
				c0.21-0.12,0.19-0.32-0.03-0.44L281.63,273.71z M247.49,293.42c-0.22-0.13-0.57-0.13-0.77-0.02l-39.71,22.93
				c-0.21,0.12-0.19,0.32,0.03,0.44l5.58,3.22c0.22,0.13,0.56,0.13,0.77,0.02l39.71-22.93c0.21-0.12,0.19-0.32-0.03-0.45
				L247.49,293.42z M205.55,317.63c-0.22-0.13-0.56-0.13-0.77-0.02l-5.94,3.43c-0.21,0.12-0.19,0.32,0.03,0.44l5.58,3.22
				c0.22,0.13,0.56,0.13,0.77,0.02l5.94-3.43c0.2-0.12,0.19-0.32-0.03-0.44L205.55,317.63z M255.65,288.7
				c-0.22-0.13-0.56-0.13-0.77-0.02l-5.94,3.43c-0.21,0.12-0.19,0.32,0.03,0.45l5.58,3.22c0.22,0.13,0.56,0.13,0.77,0.02l5.94-3.43
				c0.21-0.12,0.19-0.32-0.03-0.44L255.65,288.7z M197.38,322.34c-0.22-0.13-0.56-0.13-0.77-0.02l-5.94,3.43
				c-0.21,0.12-0.19,0.32,0.03,0.44l5.58,3.22c0.22,0.13,0.56,0.13,0.77,0.02l5.94-3.43c0.21-0.12,0.19-0.32-0.03-0.45
				L197.38,322.34z M271.98,279.28c-0.22-0.13-0.56-0.13-0.77-0.02l-5.94,3.43c-0.2,0.12-0.19,0.32,0.03,0.44l5.58,3.22
				c0.22,0.13,0.56,0.13,0.77,0.02l5.94-3.43c0.21-0.12,0.19-0.32-0.03-0.44L271.98,279.28z M297.22,264.71
				c-0.22-0.13-0.56-0.13-0.77-0.02l-4.82,2.79c-0.21,0.12-0.19,0.32,0.03,0.44l5.58,3.22c0.22,0.13,0.56,0.13,0.77,0.02l4.83-2.79
				c0.2-0.12,0.19-0.32-0.03-0.45L297.22,264.71z M312.67,253.49l4.82-2.79c0.21-0.12,0.19-0.32-0.03-0.44l-5.58-3.22
				c-0.22-0.13-0.56-0.13-0.77-0.02l-4.83,2.79c-0.2,0.12-0.19,0.32,0.03,0.44l5.58,3.22C312.12,253.6,312.46,253.6,312.67,253.49z
				 M281.14,253.28l4.83-2.79c0.21-0.12,0.19-0.32-0.03-0.45l-5.58-3.22c-0.22-0.13-0.56-0.13-0.77-0.02l-4.82,2.79
				c-0.21,0.12-0.19,0.32,0.03,0.44l5.58,3.22C280.59,253.39,280.93,253.4,281.14,253.28z M265.16,280.91l14.1-8.14
				c0.21-0.12,0.19-0.32-0.03-0.44l-5.58-3.22c-0.22-0.13-0.56-0.13-0.77-0.02l-14.1,8.14c-0.21,0.12-0.19,0.32,0.03,0.44l5.58,3.22
				C264.61,281.02,264.96,281.03,265.16,280.91z M304.85,257.54c0.22,0.13,0.56,0.13,0.77,0.02l4.83-2.79
				c0.21-0.12,0.19-0.32-0.03-0.45l-5.58-3.22c-0.22-0.13-0.56-0.13-0.77-0.02l-4.83,2.79c-0.21,0.12-0.19,0.32,0.03,0.44
				L304.85,257.54z M297.64,252.96l4.82-2.79c0.21-0.12,0.19-0.32-0.03-0.44l-5.58-3.22c-0.22-0.13-0.57-0.13-0.77-0.02l-4.83,2.79
				c-0.21,0.12-0.19,0.32,0.03,0.44l5.58,3.22C297.1,253.07,297.44,253.07,297.64,252.96z M258.11,284.98l4.82-2.79
				c0.21-0.12,0.19-0.32-0.03-0.44l-5.58-3.22c-0.22-0.13-0.56-0.13-0.77-0.02l-4.83,2.79c-0.21,0.12-0.19,0.32,0.03,0.44l5.58,3.22
				C257.56,285.09,257.91,285.1,258.11,284.98z M289.26,266.54c0.22,0.13,0.57,0.13,0.77,0.02l4.82-2.79
				c0.21-0.12,0.19-0.32-0.03-0.44l-5.58-3.22c-0.22-0.13-0.56-0.13-0.77-0.02l-4.82,2.79c-0.2,0.12-0.19,0.32,0.03,0.44
				L289.26,266.54z M222.85,305.34l4.82-2.79c0.21-0.12,0.19-0.32-0.03-0.44l-5.58-3.22c-0.22-0.13-0.56-0.13-0.77-0.02l-4.82,2.79
				c-0.21,0.12-0.19,0.32,0.03,0.44l5.58,3.22C222.31,305.45,222.65,305.46,222.85,305.34z M229.91,301.27l4.83-2.79
				c0.2-0.12,0.19-0.32-0.03-0.44l-5.58-3.22c-0.22-0.13-0.56-0.13-0.77-0.01l-4.82,2.79c-0.21,0.12-0.19,0.32,0.03,0.44l5.58,3.22
				C229.36,301.38,229.7,301.39,229.91,301.27z M215.8,309.41l4.82-2.79c0.21-0.12,0.19-0.32-0.03-0.45l-5.58-3.22
				c-0.22-0.13-0.57-0.13-0.77-0.02l-4.82,2.79c-0.21,0.12-0.19,0.32,0.03,0.45l5.58,3.22C215.25,309.52,215.6,309.53,215.8,309.41z
				 M244.01,293.13l4.82-2.79c0.21-0.12,0.19-0.32-0.03-0.44l-5.58-3.22c-0.22-0.13-0.56-0.13-0.77-0.02l-4.83,2.79
				c-0.2,0.12-0.19,0.32,0.03,0.44l5.58,3.22C243.46,293.24,243.8,293.24,244.01,293.13z M236.96,297.2l4.83-2.79
				c0.21-0.12,0.19-0.32-0.03-0.44l-5.58-3.22c-0.22-0.13-0.56-0.13-0.77-0.02l-4.82,2.79c-0.21,0.12-0.19,0.32,0.03,0.44l5.58,3.22
				C236.41,297.31,236.75,297.31,236.96,297.2z M251.06,289.05l4.83-2.79c0.2-0.12,0.19-0.32-0.03-0.44l-5.58-3.22
				c-0.22-0.13-0.56-0.13-0.77-0.02l-4.82,2.79c-0.21,0.12-0.19,0.32,0.03,0.44l5.58,3.22
				C250.51,289.17,250.85,289.17,251.06,289.05z M283.32,228.83c0.22,0.13,0.57,0.13,0.77,0.02l4.82-2.79
				c0.21-0.12,0.19-0.32-0.03-0.44l-1.49-0.86c-0.22-0.13-0.56-0.13-0.77-0.02l-4.82,2.79c-0.21,0.12-0.19,0.32,0.03,0.44
				L283.32,228.83z M248.63,251.22c0.22,0.13,0.56,0.13,0.77,0.02l4.82-2.79c0.21-0.12,0.19-0.32-0.03-0.44l-5.58-3.22
				c-0.22-0.13-0.57-0.13-0.77-0.02l-4.82,2.79c-0.21,0.12-0.19,0.32,0.03,0.44L248.63,251.22z M262.73,243.08
				c0.22,0.13,0.56,0.13,0.77,0.02l4.82-2.79c0.2-0.12,0.19-0.32-0.03-0.45l-5.58-3.22c-0.22-0.13-0.56-0.13-0.77-0.02l-4.82,2.79
				c-0.2,0.12-0.19,0.32,0.03,0.44L262.73,243.08z M240.02,256.19c0.22,0.13,0.56,0.13,0.77,0.02l4.83-2.79
				c0.2-0.12,0.19-0.32-0.03-0.44l-5.58-3.22c-0.22-0.13-0.56-0.13-0.77-0.02l-4.83,2.79c-0.21,0.12-0.19,0.32,0.03,0.45
				L240.02,256.19z M255.68,247.15c0.22,0.13,0.57,0.13,0.77,0.02l4.82-2.79c0.2-0.12,0.19-0.32-0.03-0.44l-5.58-3.22
				c-0.22-0.13-0.56-0.13-0.77-0.02l-4.82,2.79c-0.21,0.12-0.19,0.32,0.03,0.44L255.68,247.15z M225.91,264.34
				c0.22,0.13,0.56,0.13,0.77,0.02l4.82-2.79c0.21-0.12,0.19-0.32-0.03-0.44l-5.58-3.22c-0.22-0.13-0.57-0.13-0.77-0.02l-4.82,2.79
				c-0.21,0.12-0.19,0.32,0.03,0.44L225.91,264.34z M232.96,260.27c0.22,0.13,0.57,0.13,0.77,0.02l4.82-2.79
				c0.21-0.12,0.19-0.32-0.03-0.44l-5.58-3.22c-0.22-0.13-0.56-0.13-0.77-0.02l-4.82,2.79c-0.21,0.12-0.19,0.32,0.03,0.44
				L232.96,260.27z M269.22,236.97c0.22,0.13,0.56,0.13,0.77,0.02l4.83-2.79c0.21-0.12,0.19-0.32-0.03-0.44l-1.49-0.86
				c-0.22-0.13-0.56-0.13-0.77-0.02l-4.82,2.79c-0.21,0.12-0.19,0.32,0.03,0.44L269.22,236.97z M290.37,224.76
				c0.22,0.13,0.56,0.13,0.77,0.02l4.83-2.79c0.2-0.12,0.19-0.32-0.03-0.44l-1.48-0.86c-0.22-0.13-0.56-0.13-0.77-0.01l-4.83,2.79
				c-0.21,0.12-0.19,0.32,0.03,0.44L290.37,224.76z M302.09,231.52c0.22,0.13,0.56,0.13,0.77,0.02l4.82-2.79
				c0.2-0.12,0.19-0.32-0.03-0.44l-5.58-3.22c-0.22-0.13-0.56-0.13-0.77-0.02l-4.82,2.79c-0.21,0.12-0.19,0.32,0.03,0.44
				L302.09,231.52z M319.72,249.41l4.82-2.79c0.21-0.12,0.19-0.32-0.03-0.44l-5.58-3.22c-0.22-0.13-0.56-0.13-0.77-0.02l-4.82,2.79
				c-0.21,0.12-0.19,0.32,0.03,0.44l5.58,3.22C319.17,249.53,319.51,249.53,319.72,249.41z M276.27,232.9
				c0.22,0.13,0.56,0.13,0.77,0.02l4.82-2.79c0.21-0.12,0.19-0.32-0.03-0.44l-1.48-0.86c-0.22-0.13-0.57-0.13-0.77-0.02l-4.82,2.79
				c-0.2,0.12-0.19,0.32,0.03,0.44L276.27,232.9z M218.86,268.41c0.22,0.13,0.57,0.13,0.77,0.02l4.83-2.79
				c0.21-0.12,0.19-0.32-0.03-0.44l-5.58-3.22c-0.22-0.13-0.56-0.13-0.77-0.02l-4.82,2.79c-0.2,0.12-0.19,0.32,0.03,0.44
				L218.86,268.41z"/>
		</g>
		<g id="XMLID_15859_">
			<polygon class="st8" points="247.53,312.23 300.34,281.74 332.84,300.51 280.03,330.99 			"/>
		</g>
	</g>
</g>
<g id="Screen">
	<g>
		<g id="XMLID_15884_">
			<g id="XMLID_15861_">
				<path class="st10" d="M141.46,131.42l157.35-90.85c3.08-1.78,5.59-0.32,5.59,3.23v121.87c0,1.65-1.17,3.67-2.6,4.5
					l-161.35,93.15c-1.43,0.83-2.6,0.15-2.6-1.5V137.66C137.86,135.37,139.48,132.57,141.46,131.42z"/>
			</g>
			<g id="XMLID_15865_">
				<path class="st8" d="M304.4,46.73v-2.92c0-3.55-2.52-5.01-5.59-3.23l-157.35,90.85c-1.98,1.14-3.6,3.95-3.6,6.24v5.22
					L304.4,46.73z"/>
			</g>
			<g id="XMLID_15878_">
				<path class="st6" d="M280.94,53.38c-1.06,0.61-1.93,2.11-1.93,3.34s0.86,1.73,1.93,1.11c1.06-0.61,1.93-2.11,1.93-3.34
					C282.87,53.26,282,52.77,280.94,53.38z"/>
			</g>
			<g id="XMLID_15877_">
				<path class="st6" d="M288.59,48.97c-1.06,0.61-1.93,2.11-1.93,3.34c0,1.23,0.86,1.73,1.93,1.11c1.06-0.61,1.93-2.11,1.93-3.34
					S289.65,48.35,288.59,48.97z"/>
			</g>
			<g id="XMLID_15876_">
				<path class="st6" d="M296.23,44.55c-1.06,0.61-1.93,2.11-1.93,3.34c0,1.23,0.86,1.73,1.93,1.11c1.06-0.61,1.93-2.11,1.93-3.34
					C298.16,44.43,297.3,43.94,296.23,44.55z"/>
			</g>
			<g id="XMLID_15892_">
				<polygon class="st1" points="137.86,142.88 137.86,166.33 304.4,70.18 304.4,46.73 				"/>
				<polygon class="st5" points="137.86,142.88 137.86,166.33 304.4,70.18 304.4,46.73 				"/>
			</g>
			<g id="XMLID_15893_">
				<path class="st3" d="M148.76,154.11c-0.73,0.18-1.3,0.21-1.73,0.1v-11.49c0-0.25,0.05-0.45,0.14-0.63
					c0.09-0.17,0.25-0.32,0.48-0.45l0.86-0.49c0.22-0.13,0.39-0.16,0.49-0.11c0.1,0.06,0.15,0.21,0.15,0.46v3.78
					c0.29-0.46,0.67-0.91,1.14-1.34c0.47-0.43,0.97-0.79,1.51-1.1c1.26-0.73,2.24-0.89,2.92-0.48c0.68,0.41,1.02,1.33,1.02,2.78
					c0,1.68-0.4,3.22-1.2,4.61c-0.8,1.39-1.98,2.54-3.55,3.45C150.23,153.62,149.49,153.93,148.76,154.11z M152.95,149.43
					c0.44-0.83,0.66-1.83,0.66-3.01c0-0.98-0.18-1.6-0.53-1.86c-0.35-0.26-0.94-0.14-1.77,0.33c-0.57,0.33-1.07,0.79-1.51,1.37
					c-0.44,0.58-0.65,1.19-0.65,1.82v3.93c0.19,0.03,0.45,0,0.77-0.11c0.32-0.1,0.65-0.25,0.97-0.44
					C151.82,150.94,152.51,150.26,152.95,149.43z"/>
				<path class="st3" d="M157.53,148.94c-0.1-0.06-0.14-0.21-0.14-0.44v-11.76c0-0.25,0.05-0.45,0.14-0.63
					c0.09-0.17,0.25-0.32,0.48-0.45l0.89-0.51c0.22-0.13,0.39-0.16,0.49-0.11c0.1,0.06,0.15,0.21,0.15,0.46v11.76
					c0,0.23-0.05,0.44-0.14,0.61c-0.1,0.17-0.26,0.33-0.5,0.46l-0.89,0.51C157.79,148.97,157.63,149,157.53,148.94z"/>
				<path class="st3" d="M162.37,145.29c-0.79-0.43-1.18-1.41-1.18-2.93c0-1.52,0.39-2.96,1.18-4.3c0.79-1.34,1.91-2.43,3.37-3.27
					c1.46-0.84,2.58-1.05,3.37-0.62c0.79,0.43,1.19,1.4,1.19,2.93c0,1.53-0.4,2.96-1.19,4.3c-0.79,1.34-1.92,2.44-3.37,3.28
					C164.28,145.51,163.16,145.72,162.37,145.29z M167.55,141.01c0.41-0.77,0.62-1.66,0.62-2.68c0-1.01-0.21-1.65-0.62-1.94
					c-0.41-0.28-1.02-0.2-1.81,0.26c-0.78,0.45-1.39,1.06-1.8,1.83c-0.42,0.77-0.63,1.65-0.63,2.66c0,1.01,0.21,1.66,0.63,1.95
					c0.42,0.3,1.02,0.21,1.8-0.24C166.53,142.39,167.13,141.78,167.55,141.01z"/>
				<path class="st3" d="M174.33,142.5c-0.62,0.21-1.08,0.3-1.41,0.25c-0.18-0.01-0.22-0.13-0.13-0.35l0.49-1.23
					c0.07-0.17,0.13-0.27,0.2-0.31c0.04-0.03,0.1-0.04,0.17-0.04c0.61,0.01,1.41-0.27,2.4-0.84c0.75-0.43,1.3-0.96,1.65-1.57
					c0.35-0.61,0.52-1.41,0.52-2.39c-0.31,0.57-0.68,1.07-1.1,1.5c-0.42,0.43-0.93,0.82-1.52,1.16c-1.25,0.72-2.23,0.89-2.93,0.51
					c-0.7-0.38-1.05-1.29-1.05-2.73c0-1.63,0.42-3.12,1.25-4.47c0.83-1.35,2.04-2.49,3.62-3.4c0.73-0.42,1.44-0.72,2.14-0.89
					c0.7-0.17,1.27-0.21,1.7-0.11v6.65c0,1.56-0.33,2.98-0.99,4.25c-0.66,1.27-1.69,2.32-3.11,3.13
					C175.58,142,174.94,142.29,174.33,142.5z M177.62,135.11c0.39-0.61,0.59-1.25,0.59-1.92v-3.45c-0.21,0.01-0.48,0.07-0.8,0.19
					c-0.33,0.12-0.67,0.29-1.02,0.49c-1.77,1.02-2.65,2.57-2.65,4.65c0,0.96,0.2,1.56,0.59,1.8c0.39,0.25,0.98,0.14,1.78-0.32
					C176.72,136.2,177.23,135.72,177.62,135.11z"/>
			</g>
			<g id="XMLID_14969_">
				<path class="st1" d="M166.29,160.3v82.43c0,0.55,0.29,0.83,0.64,0.62c0.35-0.21,0.64-0.83,0.64-1.38v-82.43
					c0-0.55-0.29-0.83-0.64-0.62C166.58,159.13,166.29,159.75,166.29,160.3z"/>
			</g>
		</g>
		<g id="XMLID_695_">
			<g id="XMLID_14642_">
				<g id="XMLID_15894_">
					<path class="st6" d="M117.55,192.27l36.29-20.95c1.2-0.69,2.17-0.13,2.17,1.25v25.53c0,1.38-0.97,3.06-2.17,3.75l-36.29,20.95
						c-1.2,0.69-2.16,0.13-2.16-1.25v-25.53C115.38,194.64,116.35,192.96,117.55,192.27z"/>
				</g>
				<g id="XMLID_15898_">
					<path class="st1" d="M156,172.57c0-1.38-0.97-1.94-2.17-1.25l-36.29,20.95c-1.2,0.69-2.16,2.37-2.16,3.75v2.17L156,174.75
						V172.57z"/>
				</g>
			</g>
			<g id="XMLID_14633_">
				<polygon class="st3" points="119.44,200.54 135.69,191.16 135.69,207.58 119.44,216.96 				"/>
			</g>
			<g id="XMLID_14640_">
				<path class="st1" d="M119.44,214.58l6.09-10.82c0.27-0.48,0.79-0.54,1.16-0.13l2.13,2.34l3.67-8.47
					c0.22-0.51,0.65-0.55,0.97-0.1l2.22,3.15v7.04l-16.25,9.38V214.58z"/>
			</g>
			<g id="XMLID_703_">
				<path id="XMLID_34_" class="st3" d="M139.76,190.23c0,0.78,0.58,1.08,1.3,0.67l9.59-5.54c0.72-0.41,1.3-1.38,1.3-2.16
					c0-0.78-0.58-1.08-1.3-0.67l-9.59,5.54C140.34,188.48,139.76,189.45,139.76,190.23z"/>
				<path class="st3" d="M139.76,196.99c0,0.78,0.58,1.08,1.3,0.67l9.59-5.54c0.72-0.41,1.3-1.38,1.3-2.17
					c0-0.78-0.58-1.08-1.3-0.67l-9.59,5.54C140.34,195.24,139.76,196.21,139.76,196.99z"/>
				<path id="XMLID_31_" class="st3" d="M139.76,203.74c0,0.78,0.58,1.08,1.3,0.66l9.59-5.54c0.72-0.41,1.3-1.38,1.3-2.17
					c0-0.78-0.58-1.08-1.3-0.67l-9.59,5.54C140.34,201.99,139.76,202.96,139.76,203.74z"/>
			</g>
		</g>
		<g id="XMLID_704_">
			<g id="XMLID_15510_">
				<g id="XMLID_15512_">
					<path class="st6" d="M117.55,231.8l36.29-20.95c1.2-0.69,2.17-0.13,2.17,1.25v25.53c0,1.38-0.97,3.06-2.17,3.75l-36.29,20.95
						c-1.2,0.69-2.16,0.13-2.16-1.25v-25.53C115.38,234.17,116.35,232.49,117.55,231.8z"/>
				</g>
				<g id="XMLID_15511_">
					<path class="st1" d="M156,212.1c0-1.38-0.97-1.94-2.17-1.25l-36.29,20.95c-1.2,0.69-2.16,2.37-2.16,3.75v2.17L156,214.27V212.1
						z"/>
				</g>
			</g>
			<g id="XMLID_15500_">
				<polygon class="st3" points="119.44,240.07 135.69,230.69 135.69,247.1 119.44,256.48 				"/>
			</g>
			<g id="XMLID_15488_">
				<path class="st1" d="M119.44,254.1l6.09-10.82c0.27-0.48,0.79-0.54,1.16-0.13l2.13,2.34l3.67-8.47c0.22-0.51,0.65-0.55,0.97-0.1
					l2.22,3.15v7.04l-16.25,9.38V254.1z"/>
			</g>
			<g id="XMLID_705_">
				<path id="XMLID_36_" class="st3" d="M139.76,229.76c0,0.78,0.58,1.08,1.3,0.67l9.59-5.54c0.72-0.41,1.3-1.38,1.3-2.17
					c0-0.78-0.58-1.08-1.3-0.67l-9.59,5.54C140.34,228.01,139.76,228.98,139.76,229.76z"/>
				<path class="st3" d="M139.76,236.51c0,0.78,0.58,1.08,1.3,0.67l9.59-5.54c0.72-0.41,1.3-1.38,1.3-2.16
					c0-0.78-0.58-1.08-1.3-0.67l-9.59,5.54C140.34,234.76,139.76,235.73,139.76,236.51z"/>
				<path id="XMLID_35_" class="st3" d="M139.76,243.27c0,0.78,0.58,1.08,1.3,0.67l9.59-5.54c0.72-0.41,1.3-1.38,1.3-2.17
					c0-0.78-0.58-1.08-1.3-0.67l-9.59,5.54C140.34,241.52,139.76,242.48,139.76,243.27z"/>
			</g>
		</g>
		<g id="XMLID_15501_">
			<g id="XMLID_15394_">
				<g id="XMLID_15595_">
					<g id="XMLID_15597_">
						<path class="st6" d="M180.64,193.22l111.57-64.41c1.2-0.69,2.17-0.13,2.17,1.25l0,32.54c0,1.38-0.97,3.06-2.17,3.75
							l-111.57,64.41c-1.2,0.69-2.17,0.13-2.17-1.25l0-32.54C178.48,195.59,179.45,193.91,180.64,193.22z"/>
					</g>
					<g id="XMLID_15596_">
						<path class="st1" d="M294.38,130.06c0-1.38-0.97-1.94-2.17-1.25l-111.57,64.41c-1.2,0.69-2.17,2.37-2.16,3.75v2.18
							l115.9-66.91V130.06z"/>
					</g>
				</g>
			</g>
			<g id="XMLID_15541_">
				<path class="st3" d="M205.99,186.47l-22.53,13.01c-0.96,0.55-1.73,1.9-1.73,3v22.27c0,1.1,0.78,1.55,1.73,1l22.53-13.01
					c0.96-0.55,1.73-1.89,1.73-3v-22.27C207.72,186.37,206.95,185.92,205.99,186.47z"/>
			</g>
			<g id="XMLID_15557_">
				<path class="st1" d="M189.67,206.04l-7.95,16.95v1.76c0,1.1,0.78,1.55,1.73,1l22.53-13.01c0.96-0.55,1.73-1.89,1.73-3v-7.7
					l-4.26-8.04c-0.52-0.98-1.29-0.94-1.72,0.07l-6.71,15.77l-3.26-4.07C191.08,204.93,190.14,205.04,189.67,206.04z"/>
			</g>
			<g id="XMLID_15558_">
				<path class="st1" d="M184.33,205.84c2.15-1.24,3.89-4.26,3.89-6.75c0-0.87-0.22-1.55-0.59-2.03l-4.18,2.41
					c-0.96,0.55-1.73,1.9-1.73,3v3.7C182.42,206.5,183.33,206.42,184.33,205.84z"/>
			</g>
			<g id="XMLID_708_">
				<path class="st3" d="M217.91,181.57l69.65-40.21c0.96-0.55,1.73-0.17,1.73,0.84c0,1.02-0.78,2.29-1.73,2.84l-69.65,40.21
					c-0.96,0.55-1.73,0.17-1.73-0.84C216.18,183.39,216.95,182.12,217.91,181.57z"/>
			</g>
			<g id="XMLID_15513_">
				<path class="st3" d="M217.91,190.95l69.65-40.21c0.96-0.55,1.73-0.17,1.73,0.84c0,1.02-0.78,2.29-1.73,2.84l-69.65,40.21
					c-0.96,0.55-1.73,0.17-1.73-0.85C216.18,192.77,216.95,191.5,217.91,190.95z"/>
			</g>
			<g id="XMLID_15560_">
				<path class="st3" d="M217.91,200.33l69.65-40.21c0.96-0.55,1.73-0.17,1.73,0.84c0,1.02-0.78,2.29-1.73,2.84l-69.65,40.21
					c-0.96,0.55-1.73,0.17-1.73-0.85C216.18,202.15,216.95,200.88,217.91,200.33z"/>
			</g>
		</g>
	</g>
</g>
<g id="Character">
	<g id="XMLID_15879_">
		<g id="XMLID_15849_">
			<path class="st11" d="M331.88,90.35l-10.22-0.28c-0.69-0.59-11.43-12.71-11.43-12.71s-3.86,6.1-3.93,6.49
				c-0.06,0.39,10.53,11.72,11.58,12.86c0.58,0.63,1.11,1.14,2.5,1.22c2.77,0.17,13.15,0.9,13.15,0.9L331.88,90.35z"/>
		</g>
		<g id="XMLID_15933_">
			<polygon class="st1" points="346.42,102.09 330.65,100.93 331.88,90.35 348.15,90.7 			"/>
			<polygon class="st2" points="346.42,102.09 330.65,100.93 331.88,90.35 348.15,90.7 			"/>
		</g>
		<g id="XMLID_15570_">
			<g id="XMLID_15601_">
				<g id="XMLID_15602_">
					<g id="XMLID_15604_">
						<path class="st6" d="M200.95,136.9l111.57-64.41c1.2-0.69,2.17-0.13,2.17,1.25v32.54c0,1.38-0.97,3.06-2.17,3.75
							l-111.57,64.41c-1.2,0.69-2.17,0.13-2.17-1.25l0-32.54C198.79,139.27,199.76,137.59,200.95,136.9z"/>
					</g>
					<g id="XMLID_15603_">
						<path class="st1" d="M314.69,73.74c0-1.38-0.97-1.94-2.17-1.25L200.95,136.9c-1.2,0.69-2.17,2.37-2.17,3.75v2.18l115.9-66.91
							V73.74z"/>
					</g>
				</g>
			</g>
			<g id="XMLID_15600_">
				<path class="st3" d="M226.3,130.14l-22.53,13.01c-0.96,0.55-1.73,1.9-1.73,3v22.27c0,1.1,0.78,1.55,1.73,1l22.53-13.01
					c0.96-0.55,1.73-1.9,1.73-3v-22.27C228.03,130.04,227.26,129.59,226.3,130.14z"/>
			</g>
			<g id="XMLID_15599_">
				<path class="st1" d="M209.98,149.72l-7.95,16.95v1.76c0,1.1,0.78,1.55,1.73,1l22.53-13.01c0.96-0.55,1.73-1.9,1.73-3v-7.7
					l-4.26-8.04c-0.52-0.98-1.29-0.94-1.72,0.07l-6.71,15.77l-3.26-4.07C211.39,148.6,210.45,148.72,209.98,149.72z"/>
			</g>
			<g id="XMLID_15598_">
				<path class="st1" d="M204.64,149.51c2.15-1.24,3.89-4.26,3.89-6.75c0-0.87-0.22-1.55-0.59-2.03l-4.18,2.41
					c-0.96,0.55-1.73,1.9-1.73,3v3.7C202.73,150.18,203.64,150.09,204.64,149.51z"/>
			</g>
			<g id="XMLID_15594_">
				<path class="st3" d="M238.22,125.24l69.65-40.21c0.96-0.55,1.73-0.17,1.73,0.84c0,1.02-0.77,2.29-1.73,2.84l-69.65,40.21
					c-0.96,0.55-1.73,0.17-1.73-0.84C236.49,127.07,237.26,125.79,238.22,125.24z"/>
			</g>
			<g id="XMLID_15593_">
				<path class="st3" d="M238.22,134.62l69.65-40.21c0.96-0.55,1.73-0.17,1.73,0.84c0,1.02-0.77,2.29-1.73,2.84l-69.65,40.21
					c-0.96,0.55-1.73,0.17-1.73-0.85C236.49,136.45,237.26,135.17,238.22,134.62z"/>
			</g>
			<g id="XMLID_15591_">
				<path class="st3" d="M238.22,144l69.65-40.21c0.96-0.55,1.73-0.17,1.73,0.84c0,1.02-0.77,2.29-1.73,2.84l-69.65,40.21
					c-0.96,0.55-1.73,0.17-1.73-0.85C236.49,145.83,237.26,144.55,238.22,144z"/>
			</g>
		</g>
		<g id="XMLID_15927_">
			<g id="XMLID_15928_">
				<g id="XMLID_15959_">
					<rect x="360.63" y="213.95" class="st12" width="5.9" height="8.6"/>
				</g>
				<g id="XMLID_15958_">
					
						<rect x="340.02" y="203.41" transform="matrix(0.9994 -0.0343 0.0343 0.9994 -6.9281 11.8957)" class="st12" width="5.9" height="8.6"/>
				</g>
				<g id="XMLID_15956_">
					<path class="st9" d="M366.15,130.02c0,5.64,0.73,42.11,0.73,42.11c0.14,1.62,1.66,4.61,1.33,10.84
						c-0.45,8.46-1.18,31.98-1.18,31.98s-2.77,2.74-6.68,0c0,0-5.35-31.95-6.4-40.34c-0.92-7.32-2.49-27.21-2.49-27.21l-5.47,23.41
						c0,0,0.96,5.5,1.17,9.39c0.21,3.88-1,26.32-1,26.32s-3,2.07-6.42,0.24c0,0-4.74-32.78-5.35-36.29
						c-0.61-3.51,4.15-40.46,4.15-40.46H366.15z"/>
				</g>
				<g id="XMLID_15955_">
					<path class="st1" d="M357.26,90.97c0.03,0.01,0.05,0.01,0.08,0.02c5.2,1.29,8.81,6.03,8.81,11.39v10.17v17.47
						c-4.14,4.5-18.57,6.6-27.62,0c0,0,0-24.18,0-28.78c0-4.6,2.55-10.12,9.61-10.53L357.26,90.97z"/>
				</g>
				<g id="XMLID_15940_">
					<g id="XMLID_15948_">
						<g id="XMLID_15954_">
							<path class="st8" d="M359.25,67.43c0,0,1.46-0.25,2.6,0.92c1.12,1.14,0.89,3.26,0,8.12l-3.45,0.4L359.25,67.43z"/>
						</g>
						<g id="XMLID_15953_">
							<path class="st8" d="M339.1,66.02c0,0-1.4,0-2.16-0.44c-1.06-0.61-1.34,0.6-0.76,1.64c0.58,1.05,1.67,2.41,4.01,2.67
								c0.03-0.15,0.99-2.7,0.99-2.7L339.1,66.02z"/>
						</g>
						<g id="XMLID_15952_">
							<path class="st12" d="M357.63,76.87c0.51,0.31,1.25-0.68,1.88-1.34c0.63-0.66,2.7-1.57,3.73,0.6
								c1.05,2.21-1.33,5.15-2.73,6.13c-1.66,1.16-2.87,0.25-2.87,0.25l-0.37,8.46c0,0-1.84,4.49-6.8,5.16
								c-4.97,0.67-3.95-3.42-2.31-5.43l0.01-3.08c0,0-2.57,0.52-3.78,0.19c-0.65-0.17-2.19-2.04-3.19-4.13
								c-1.12-2.35-2.98-6.52-1.33-13.57c1.78-7.57,9.92-7.8,14.77-4.75C359.48,68.42,357.63,76.87,357.63,76.87z"/>
						</g>
						<g id="XMLID_15951_">
							<path class="st8" d="M357.63,77.73c0.26,0,1.24-1.62,1.88-2.2c0.88-0.81-0.26-8.1-0.26-8.1s0.9-2.77-0.85-4.6
								c-1.75-1.83-5.14-1.52-7.62-1.61c-2.58-0.09-5.34-0.25-8.86-1.78c-3.52-1.53-3.78-1.71-4.22-0.16
								c-0.44,1.55-0.6,5.08,1.5,7.46l1.75,0.64c0,0,0.94,0.84,4.23,1.24c3.28,0.4,8.4-0.08,9.09-0.17
								c0.95-0.13,1.16,0.79,1.67,3.31C356.39,73.97,356.76,77.71,357.63,77.73z"/>
						</g>
						<g id="XMLID_15950_">
							<path class="st8" d="M359.25,68l3.1-1.66c-0.44-0.89-1.49-1.24-2.35-0.78C359.14,66.02,358.81,67.11,359.25,68z"/>
						</g>
						<g id="XMLID_15949_">
							<path class="st11" d="M348.15,87.62c0,0,4.6-0.93,6.21-1.78c1.08-0.57,1.96-1.56,2.22-2.2c0,0-0.3,1.37-1.26,2.59
								c-1.18,1.5-7.17,2.61-7.17,2.61V87.62z"/>
						</g>
					</g>
					<g id="XMLID_15941_">
						<g id="XMLID_15947_">
							<path class="st8" d="M349.26,75.72c0,0.53,0.41,0.96,0.92,0.96c0.51,0,0.92-0.43,0.92-0.96c0-0.53-0.41-0.96-0.92-0.96
								C349.67,74.76,349.26,75.19,349.26,75.72z"/>
						</g>
						<g id="XMLID_15946_">
							<path class="st8" d="M350.24,72.24l1.97,1.09c0.29-0.57,0.08-1.27-0.46-1.57C351.2,71.46,350.53,71.67,350.24,72.24z"/>
						</g>
						<g id="XMLID_15945_">
							<path class="st11" d="M349.33,81.97l-2.1,0.79c0.21,0.6,0.85,0.92,1.43,0.7C349.23,83.24,349.54,82.57,349.33,81.97z"/>
						</g>
						<g id="XMLID_15944_">
							<path class="st8" d="M341.04,73.01l1.8-1.39c-0.37-0.51-1.07-0.62-1.56-0.24C340.78,71.76,340.67,72.49,341.04,73.01z"/>
						</g>
						<g id="XMLID_15943_">
							<path class="st8" d="M341.59,75.46c0,0.53,0.41,0.96,0.92,0.96c0.51,0,0.92-0.43,0.92-0.96c0-0.53-0.41-0.96-0.92-0.96
								C342.01,74.5,341.59,74.93,341.59,75.46z"/>
						</g>
						<g id="XMLID_15942_">
							<polygon class="st11" points="346.29,74.58 345.99,80.13 343.09,79.14 							"/>
						</g>
					</g>
				</g>
				<g id="XMLID_15930_">
					<path class="st8" d="M360.63,219.64v-0.84c-0.56,0.25-1.88,5.25-4.22,7.39c-1.86,1.7-4.4,3.66-5.05,5.55
						c-0.67,1.97,3.54,3.06,5.28,2.75c2.02-0.36,5.53-1.78,6.41-3.1c0.88-1.32,1.29-3.27,2.01-4.23c0.71-0.97,2.36-2.05,2.75-3.17
						c0.21-0.61-0.04-1.96-0.34-3.1c-0.27-1.04-0.57-2.19-0.93-2.09c0,0.13,0,0.64,0,0.64c-0.43,0.48-1.61,0.95-2.95,1
						C362.72,220.47,360.63,220.3,360.63,219.64z"/>
				</g>
				<g id="XMLID_15929_">
					<path class="st8" d="M340.1,210.29c-0.31,0.01-0.56,0.44-1.23,1.17c-0.82,0.88-2.15,1.84-3.47,2.5
						c-2.21,1.11-6.51,2.81-8.45,3.69c-1.22,0.55-1.16,2.01,0.1,2.85c1.26,0.83,4.29,1.44,7.93,0.62c1.98-0.44,4.57-2.28,6.2-2.18
						c1.63,0.1,4.69,0.08,5.9-0.76c1.21-0.83,0.72-2.61,0.38-4.13c-0.37-1.67-0.91-4.21-1.46-4.1l0.02,0.52
						c-0.71,1.07-4.32,1.51-5.88,0.72L340.1,210.29z"/>
				</g>
			</g>
		</g>
		<g id="XMLID_15932_">
			<path class="st12" d="M359.05,94.8l-18.23,18.86c0,0-15.99-2.86-21.46-4.43c-1.72-0.49-2.92-3.06-3.3-5.05
				c-0.38-1.99-1.37-2.59-1.37-2.59s-0.04,1.41-0.36,3.72c-0.14,1.01-1.72,1.13-3.13,1.43c-5.02,1.08-6.71-0.02-8.77,1.45
				c-1.6,1.14,0.4,4.1,4.06,5.1c5.13,1.4,7.96,0.7,11.08,1.48c2.41,0.6,19.75,6.04,23.05,6.76c1.75,0.38,3.08,0.26,4.97-1.62
				c1.89-1.88,16.29-14.42,16.29-14.42L359.05,94.8z"/>
		</g>
		<g id="XMLID_15931_">
			<path class="st1" d="M359.84,94.15c-2.01-0.5-14.19,14.05-14.19,14.05l6.72,5.64c0,0,8.69-5.7,10.24-7.98
				C364.15,103.57,365.9,95.67,359.84,94.15z"/>
		</g>
		<g id="XMLID_15934_">
			<path class="st1" d="M352.81,114.18c0,0,9.18-8.22,9.61-9.12c0.83-1.73,0.6-4.94,0.6-4.94s1,2.78,0.03,4.93
				c-0.97,2.15-7.98,8.25-9.11,9.31c-1.13,1.06-1.13,1.06-1.13,1.06l-1.09-1.01l0.65-0.58L352.81,114.18z"/>
			<path class="st2" d="M352.81,114.18c0,0,9.18-8.22,9.61-9.12c0.83-1.73,0.6-4.94,0.6-4.94s1,2.78,0.03,4.93
				c-0.97,2.15-7.98,8.25-9.11,9.31c-1.13,1.06-1.13,1.06-1.13,1.06l-1.09-1.01l0.65-0.58L352.81,114.18z"/>
		</g>
		<g id="XMLID_15850_">
			<path class="st11" d="M306.69,73.48c2-0.22,3.33-1.7,3.78-1.28c0.45,0.42,0.33,1.13,0.06,1.45c-0.56,0.64-2.99,1.73-2.99,1.73
				s-0.34,1.27-0.54,3.09c-0.17,1.53-0.11,4.58-1.42,5.63c-3.91,3.13-4.91-1.85-4.76-5.18C301.02,74.76,304.59,73.7,306.69,73.48z"
				/>
		</g>
	</g>
</g>
</svg>
