<svg width="24" height="24" viewBox="0 0 24 24" fill="none" xmlns="http://www.w3.org/2000/svg">
<path d="M12 0C8.8174 0 5.76516 1.26428 3.51472 3.51472C1.26428 5.76516 0 8.8174 0 12C0 15.1826 1.26428 18.2348 3.51472 20.4853C5.76516 22.7357 8.8174 24 12 24C15.1826 24 18.2348 22.7357 20.4853 20.4853C22.7357 18.2348 24 15.1826 24 12C24 8.8174 22.7357 5.76516 20.4853 3.51472C18.2348 1.26428 15.1826 0 12 0V0ZM9.504 1.7985C11.1449 1.3977 12.8581 1.3977 14.499 1.7985L12 3.255L9.504 1.8V1.7985ZM7.638 2.4465L11.253 4.554V7.104L7.0995 10.032L4.7595 9.1815L3.8205 5.4135C4.84568 4.14145 6.15259 3.12519 7.638 2.445V2.4465ZM2.7015 7.119L3.291 9.489L1.545 11.04C1.6725 9.6345 2.076 8.31 2.703 7.119H2.7015ZM1.551 13.038L4.2915 10.608L6.6105 11.4495L8.178 16.3845L7.1025 17.994H3.378C2.35425 16.5259 1.72512 14.8193 1.551 13.038V13.038ZM4.6455 19.494H6.9765L7.7415 21.6C6.59186 21.0888 5.54325 20.3755 4.6455 19.494V19.494ZM9.5595 22.215L8.337 18.846L9.402 17.2515H14.6025L15.669 18.846L14.4465 22.2135C12.8401 22.597 11.1659 22.597 9.5595 22.2135V22.215ZM16.266 21.597L17.031 19.494H19.3545C18.4587 20.3736 17.4127 21.0858 16.266 21.597V21.597ZM20.622 17.994H16.905L15.825 16.3815L17.3625 11.451L19.713 10.605L22.449 13.038C22.2749 14.8193 21.6457 16.5259 20.622 17.994V17.994ZM22.4565 11.037L20.7165 9.4905L21.306 7.1325C21.927 8.3175 22.329 9.6375 22.4565 11.037ZM20.1855 5.424L19.248 9.1785L16.872 10.0335L12.7515 7.1055V4.5555L16.365 2.445C17.853 3.12713 19.1616 4.14658 20.187 5.4225L20.1855 5.424ZM8.0955 11.169L12 8.4105L15.879 11.166L14.451 15.75H9.5505L8.0955 11.166V11.169Z" fill="black"/>
</svg>
