<svg width="28" height="28" viewBox="0 0 28 28" fill="none" xmlns="http://www.w3.org/2000/svg">
<path d="M14 2.80005C11.0296 2.80005 8.18086 3.98005 6.08045 6.08045C3.98005 8.18086 2.80005 11.0296 2.80005 14C2.80005 16.9705 3.98005 19.8192 6.08045 21.9196C8.18086 24.0201 11.0296 25.2 14 25.2C16.9705 25.2 19.8192 24.0201 21.9196 21.9196C24.0201 19.8192 25.2 16.9705 25.2 14C25.2 11.0296 24.0201 8.18086 21.9196 6.08045C19.8192 3.98005 16.9705 2.80005 14 2.80005V2.80005ZM11.6704 4.47865C13.2019 4.10457 14.801 4.10457 16.3324 4.47865L14 5.83805L11.6704 4.48005V4.47865ZM9.92885 5.08345L13.3028 7.05045V9.43045L9.42625 12.1632L7.24225 11.3694L6.36585 7.85265C7.32268 6.6654 8.54246 5.71689 9.92885 5.08205V5.08345ZM5.32145 9.44445L5.87165 11.6564L4.24205 13.104C4.36105 11.7922 4.73765 10.556 5.32285 9.44445H5.32145ZM4.24765 14.9688L6.80545 12.7008L8.96985 13.4862L10.4328 18.0922L9.42905 19.5944H5.95285C4.99735 18.2242 4.41016 16.6314 4.24765 14.9688V14.9688ZM7.13585 20.9944H9.31145L10.0254 22.96C8.95245 22.4829 7.97375 21.8172 7.13585 20.9944V20.9944ZM11.7222 23.534L10.5812 20.3896L11.5752 18.9014H16.429L17.4244 20.3896L16.2834 23.5326C14.7841 23.8906 13.2216 23.8906 11.7222 23.5326V23.534ZM17.9816 22.9572L18.6956 20.9944H20.8642C20.0282 21.8154 19.0519 22.4802 17.9816 22.9572V22.9572ZM22.0472 19.5944H18.578L17.57 18.0894L19.005 13.4876L21.1988 12.698L23.7524 14.9688C23.5899 16.6314 23.0027 18.2242 22.0472 19.5944V19.5944ZM23.7594 13.1012L22.1354 11.6578L22.6856 9.45705C23.2652 10.563 23.6404 11.795 23.7594 13.1012ZM21.6398 7.86245L20.7648 11.3666L18.5472 12.1646L14.7014 9.43185V7.05185L18.074 5.08205C19.4628 5.7187 20.6842 6.67019 21.6412 7.86105L21.6398 7.86245ZM10.3558 13.2244L14 10.6498L17.6204 13.2216L16.2876 17.5H11.7138L10.3558 13.2216V13.2244Z" fill="black"/>
</svg>
