<svg width="24" height="24" viewBox="0 0 24 24" fill="none" xmlns="http://www.w3.org/2000/svg">
<path d="M23.0977 19.5859C22.5207 18.2387 21.6835 17.015 20.6325 15.9829C19.5848 14.9479 18.3436 14.1226 16.9776 13.5528C16.9654 13.5467 16.9532 13.5437 16.9409 13.5377C18.8464 12.1809 20.0851 9.97085 20.0851 7.47739C20.0851 3.34673 16.6901 0 12.5 0C8.30987 0 4.91494 3.34673 4.91494 7.47739C4.91494 9.97085 6.15363 12.1809 8.05907 13.5407C8.04684 13.5467 8.0346 13.5497 8.02237 13.5558C6.65217 14.1256 5.42265 14.9427 4.36747 15.9859C3.31752 17.0188 2.4804 18.2423 1.90233 19.5889C1.33444 20.9073 1.02816 22.3207 1.00008 23.7528C0.99926 23.7849 1.00499 23.817 1.01692 23.8469C1.02885 23.8769 1.04674 23.9042 1.06954 23.9272C1.09234 23.9503 1.11959 23.9686 1.14969 23.9811C1.17978 23.9936 1.2121 24 1.24476 24H3.07985C3.21442 24 3.32147 23.8945 3.32453 23.7648C3.3857 21.4372 4.33383 19.2573 6.00988 17.605C7.74405 15.8955 10.0471 14.9548 12.5 14.9548C14.9529 14.9548 17.256 15.8955 18.9901 17.605C20.6662 19.2573 21.6143 21.4372 21.6755 23.7648C21.6785 23.8975 21.7856 24 21.9202 24H23.7552C23.7879 24 23.8202 23.9936 23.8503 23.9811C23.8804 23.9686 23.9077 23.9503 23.9305 23.9272C23.9533 23.9042 23.9712 23.8769 23.9831 23.8469C23.995 23.817 24.0007 23.7849 23.9999 23.7528C23.9693 22.3116 23.6665 20.9095 23.0977 19.5859V19.5859ZM12.5 12.6633C11.0962 12.6633 9.77489 12.1236 8.78088 11.1437C7.78687 10.1638 7.2394 8.86131 7.2394 7.47739C7.2394 6.09347 7.78687 4.79095 8.78088 3.81106C9.77489 2.83116 11.0962 2.29146 12.5 2.29146C13.9038 2.29146 15.2251 2.83116 16.2191 3.81106C17.2131 4.79095 17.7606 6.09347 17.7606 7.47739C17.7606 8.86131 17.2131 10.1638 16.2191 11.1437C15.2251 12.1236 13.9038 12.6633 12.5 12.6633Z" fill="black"/>
</svg>
