<svg width="24" height="24" viewBox="0 0 24 24" fill="none" xmlns="http://www.w3.org/2000/svg">
<path d="M24 20C24 21.0609 23.5485 22.0783 22.7447 22.8284C21.941 23.5786 20.8509 24 19.7143 24H17.5714V22H19.7143C20.2826 22 20.8277 21.7893 21.2295 21.4142C21.6314 21.0391 21.8571 20.5304 21.8571 20C21.8571 19.4696 21.6314 18.9609 21.2295 18.5858C20.8277 18.2107 20.2826 18 19.7143 18H17.5714V16H19.7143C20.8509 16 21.941 16.4214 22.7447 17.1716C23.5485 17.9217 24 18.9391 24 20ZM9 20C9 18.9391 9.45153 17.9217 10.2553 17.1716C11.059 16.4214 12.1491 16 13.2857 16H15.4286V18H13.2857C12.7174 18 12.1723 18.2107 11.7705 18.5858C11.3686 18.9609 11.1429 19.4696 11.1429 20C11.1429 20.5304 11.3686 21.0391 11.7705 21.4142C12.1723 21.7893 12.7174 22 13.2857 22H15.4286V24H13.2857C12.1491 24 11.059 23.5786 10.2553 22.8284C9.45153 22.0783 9 21.0609 9 20Z" fill="black"/>
<path d="M14.7333 18.8667H19V21H14.7333V18.8667ZM9.4 5C8.7671 5 8.14841 5.18768 7.62218 5.5393C7.09594 5.89092 6.68579 6.39069 6.44359 6.97541C6.20139 7.56014 6.13801 8.20355 6.26149 8.82429C6.38496 9.44503 6.68973 10.0152 7.13726 10.4627C7.58479 10.9103 8.15497 11.215 8.77571 11.3385C9.39645 11.462 10.0399 11.3986 10.6246 11.1564C11.2093 10.9142 11.7091 10.5041 12.0607 9.97783C12.4123 9.45159 12.6 8.8329 12.6 8.2C12.5975 7.35209 12.2595 6.53962 11.6599 5.94006C11.0604 5.34049 10.2479 5.00253 9.4 5V5ZM9.4 9.26667C9.18903 9.26667 8.9828 9.20411 8.80739 9.0869C8.63198 8.96969 8.49526 8.8031 8.41453 8.6082C8.3338 8.41329 8.31267 8.19882 8.35383 7.9919C8.39499 7.78499 8.49658 7.59493 8.64575 7.44575C8.79493 7.29658 8.98499 7.19499 9.1919 7.15383C9.39882 7.11267 9.61329 7.1338 9.8082 7.21453C10.0031 7.29526 10.1697 7.43198 10.2869 7.60739C10.4041 7.7828 10.4667 7.98903 10.4667 8.2C10.4658 8.48264 10.3532 8.75346 10.1533 8.95332C9.95346 9.15317 9.68264 9.26582 9.4 9.26667V9.26667ZM5.464 15.6667C6.63854 14.9084 8.00212 14.4945 9.4 14.472C9.67787 14.4756 9.95515 14.4984 10.2299 14.5403C11.2554 13.8825 12.4483 13.533 13.6667 13.5333H13.9376C12.54 12.7855 10.9849 12.3797 9.4 12.3493C7.23467 12.3493 3 13.4907 3 16.168V17.8H7.63893C7.91777 17.0129 8.34829 16.2881 8.90613 15.6667H5.464Z" fill="black"/>
<path d="M16.8889 2.10019H12.4767C12.2605 1.48641 11.858 0.954608 11.3247 0.578356C10.7914 0.202105 10.1538 0 9.5 0C8.8462 0 8.20857 0.202105 7.67529 0.578356C7.14202 0.954608 6.73947 1.48641 6.52333 2.10019H2.11111C1.55172 2.10185 1.01572 2.32363 0.620176 2.7171C0.224627 3.11056 0.00167066 3.64373 0 4.20017L0 18.9C0.00167066 19.4565 0.224627 19.9896 0.620176 20.3831C1.01572 20.7766 1.55172 20.9983 2.11111 21H7.53772C7.33867 20.314 7.33867 19.586 7.53772 18.9H2.11111V4.20017H16.8889V13.6501H19V4.20017C18.9983 3.64373 18.7754 3.11056 18.3798 2.7171C17.9843 2.32363 17.4483 2.10185 16.8889 2.10019V2.10019ZM9.5 3.41268C9.29046 3.4113 9.0899 3.32789 8.94174 3.18051C8.79357 3.03312 8.70972 2.83362 8.70833 2.62519C8.70833 2.41633 8.79174 2.21603 8.94021 2.06834C9.08867 1.92066 9.29004 1.83769 9.5 1.83769C9.70996 1.83769 9.91133 1.92066 10.0598 2.06834C10.2083 2.21603 10.2917 2.41633 10.2917 2.62519C10.2903 2.83362 10.2064 3.03312 10.0583 3.18051C9.9101 3.32789 9.70954 3.4113 9.5 3.41268Z" fill="black"/>
</svg>
