<svg width="24" height="24" viewBox="0 0 24 24" fill="none" xmlns="http://www.w3.org/2000/svg">
<path d="M8.57486 4.66361C8.57486 3.69196 8.93572 2.76011 9.57806 2.07305C10.2204 1.38599 11.0916 1 12 1C12.9084 1 13.7796 1.38599 14.4219 2.07305C15.0643 2.76011 15.4251 3.69196 15.4251 4.66361C15.4251 5.63526 15.0643 6.56711 14.4219 7.25417C13.7796 7.94123 12.9084 8.32722 12 8.32722C11.0916 8.32722 10.2204 7.94123 9.57806 7.25417C8.93572 6.56711 8.57486 5.63526 8.57486 4.66361V4.66361ZM12 2.83364C11.7753 2.83364 11.5529 2.88097 11.3453 2.97294C11.1377 3.0649 10.9491 3.1997 10.7902 3.36963C10.6314 3.53955 10.5054 3.74129 10.4194 3.96331C10.3334 4.18533 10.2891 4.4233 10.2891 4.66361C10.2891 4.90393 10.3334 5.14189 10.4194 5.36391C10.5054 5.58593 10.6314 5.78767 10.7902 5.9576C10.9491 6.12752 11.1377 6.26232 11.3453 6.35428C11.5529 6.44625 11.7753 6.49358 12 6.49358C12.4537 6.49358 12.8889 6.30078 13.2098 5.9576C13.5306 5.61441 13.7109 5.14895 13.7109 4.66361C13.7109 4.17827 13.5306 3.71281 13.2098 3.36963C12.8889 3.02644 12.4537 2.83364 12 2.83364V2.83364ZM17.1429 5.58043C17.1429 5.21923 17.2094 4.86158 17.3386 4.52787C17.4678 4.19417 17.6572 3.89097 17.896 3.63556C18.1348 3.38016 18.4183 3.17756 18.7302 3.03934C19.0422 2.90111 19.3766 2.82997 19.7143 2.82997C20.052 2.82997 20.3863 2.90111 20.6983 3.03934C21.0103 3.17756 21.2938 3.38016 21.5326 3.63556C21.7713 3.89097 21.9608 4.19417 22.09 4.52787C22.2192 4.86158 22.2857 5.21923 22.2857 5.58043C22.2857 6.3099 22.0148 7.00949 21.5326 7.5253C21.0503 8.04111 20.3963 8.33089 19.7143 8.33089C19.0323 8.33089 18.3782 8.04111 17.896 7.5253C17.4138 7.00949 17.1429 6.3099 17.1429 5.58043ZM19.7143 4.66361C19.487 4.66361 19.2689 4.7602 19.1082 4.93214C18.9474 5.10408 18.8571 5.33727 18.8571 5.58043C18.8571 5.82359 18.9474 6.05678 19.1082 6.22872C19.2689 6.40066 19.487 6.49725 19.7143 6.49725C19.9416 6.49725 20.1596 6.40066 20.3204 6.22872C20.4811 6.05678 20.5714 5.82359 20.5714 5.58043C20.5714 5.33727 20.4811 5.10408 20.3204 4.93214C20.1596 4.7602 19.9416 4.66361 19.7143 4.66361ZM4.28571 2.82997C3.60373 2.82997 2.94968 3.11975 2.46744 3.63556C1.9852 4.15137 1.71429 4.85096 1.71429 5.58043C1.71429 6.3099 1.9852 7.00949 2.46744 7.5253C2.94968 8.04111 3.60373 8.33089 4.28571 8.33089C4.9677 8.33089 5.62175 8.04111 6.10399 7.5253C6.58623 7.00949 6.85714 6.3099 6.85714 5.58043C6.85714 4.85096 6.58623 4.15137 6.10399 3.63556C5.62175 3.11975 4.9677 2.82997 4.28571 2.82997ZM3.42857 5.58043C3.42857 5.33727 3.51888 5.10408 3.67962 4.93214C3.84037 4.7602 4.05839 4.66361 4.28571 4.66361C4.51304 4.66361 4.73106 4.7602 4.89181 4.93214C5.05255 5.10408 5.14286 5.33727 5.14286 5.58043C5.14286 5.82359 5.05255 6.05678 4.89181 6.22872C4.73106 6.40066 4.51304 6.49725 4.28571 6.49725C4.05839 6.49725 3.84037 6.40066 3.67962 6.22872C3.51888 6.05678 3.42857 5.82359 3.42857 5.58043ZM5.60229 10.1645C5.30058 10.7217 5.14207 11.3543 5.14286 11.9982H1.71429V16.5823C1.71415 17.0384 1.82005 17.4873 2.02246 17.8888C2.22487 18.2902 2.51743 18.6315 2.87381 18.8819C3.23019 19.1323 3.6392 19.2841 4.06402 19.3234C4.48883 19.3627 4.91613 19.2884 5.30743 19.1072C5.43429 19.7141 5.63314 20.2935 5.89029 20.8345C5.23965 21.1155 4.53447 21.2213 3.83667 21.1427C3.13886 21.064 2.46979 20.8033 1.88819 20.3835C1.30659 19.9636 0.830262 19.3974 0.501039 18.7347C0.171816 18.0719 -0.000233225 17.3328 2.3728e-07 16.5823V11.9982C2.3728e-07 11.5119 0.180612 11.0455 0.502103 10.7016C0.823594 10.3577 1.25963 10.1645 1.71429 10.1645H5.60229ZM18.1097 20.8345C18.7603 21.1155 19.4655 21.2213 20.1633 21.1427C20.8611 21.064 21.5302 20.8033 22.1118 20.3835C22.6934 19.9636 23.1697 19.3974 23.499 18.7347C23.8282 18.0719 24.0002 17.3328 24 16.5823V11.9982C24 11.5119 23.8194 11.0455 23.4979 10.7016C23.1764 10.3577 22.7404 10.1645 22.2857 10.1645H18.3977C18.6891 10.7036 18.8571 11.3289 18.8571 11.9982H22.2857V16.5823C22.2859 17.0384 22.18 17.4873 21.9775 17.8888C21.7751 18.2902 21.4826 18.6315 21.1262 18.8819C20.7698 19.1323 20.3608 19.2841 19.936 19.3234C19.5112 19.3627 19.0839 19.2884 18.6926 19.1072C18.564 19.7141 18.3669 20.2935 18.1097 20.8345V20.8345ZM8.57143 10.1627C8.11677 10.1627 7.68074 10.3559 7.35925 10.6998C7.03775 11.0436 6.85714 11.51 6.85714 11.9963V17.4991C6.85714 18.958 7.39898 20.3572 8.36345 21.3888C9.32792 22.4204 10.636 23 12 23C13.364 23 14.6721 22.4204 15.6365 21.3888C16.601 20.3572 17.1429 18.958 17.1429 17.4991V11.9982C17.1429 11.5119 16.9622 11.0455 16.6408 10.7016C16.3193 10.3577 15.8832 10.1645 15.4286 10.1645H8.57143V10.1627ZM8.57143 11.9963H15.4286V17.4991C15.4286 18.4717 15.0673 19.4045 14.4244 20.0922C13.7814 20.78 12.9093 21.1664 12 21.1664C11.0907 21.1664 10.2186 20.78 9.57563 20.0922C8.93265 19.4045 8.57143 18.4717 8.57143 17.4991V11.9982V11.9963Z" fill="black"/>
</svg>
