<svg width="196" height="196" viewBox="0 0 196 196" fill="none" xmlns="http://www.w3.org/2000/svg">
<path d="M67.375 110.25L76.0112 118.886L91.875 103.084V177.625H104.125V103.084L119.989 118.886L128.625 110.25L98 79.625L67.375 110.25Z" fill="#101010"/>
<path d="M143.938 134.75H140.875V122.5H143.938C151.248 122.792 158.374 120.169 163.75 115.207C169.126 110.244 172.31 103.35 172.603 96.0399C172.895 88.7299 170.272 81.6031 165.309 76.2274C160.347 70.8517 153.453 67.6673 146.143 67.3749H140.875L140.263 62.3524C138.904 52.0407 133.843 42.5745 126.023 35.7172C118.202 28.8598 108.156 25.079 97.7551 25.079C87.3542 25.079 77.3079 28.8598 69.4877 35.7172C61.6674 42.5745 56.6065 52.0407 55.2476 62.3524L55.1251 67.3749H49.8576C42.5476 67.6673 35.6531 70.8517 30.6909 76.2274C25.7287 81.6031 23.1052 88.7299 23.3976 96.0399C23.69 103.35 26.8743 110.244 32.2501 115.207C37.6258 120.169 44.7526 122.792 52.0626 122.5H55.1251V134.75H52.0626C42.2406 134.688 32.7883 130.997 25.5229 124.387C18.2575 117.777 13.692 108.715 12.7042 98.9424C11.7163 89.17 14.3758 79.3773 20.1713 71.4472C25.9668 63.517 34.4893 58.0091 44.1001 55.9824C46.7443 43.6499 53.5377 32.597 63.3468 24.6682C73.1558 16.7393 85.3873 12.4141 98.0001 12.4141C110.613 12.4141 122.844 16.7393 132.653 24.6682C142.462 32.597 149.256 43.6499 151.9 55.9824C161.511 58.0091 170.033 63.517 175.829 71.4472C181.624 79.3773 184.284 89.17 183.296 98.9424C182.308 108.715 177.743 117.777 170.477 124.387C163.212 130.997 153.76 134.688 143.938 134.75Z" fill="#101010"/>
</svg>
