<svg width="147" height="53" viewBox="0 0 147 53" fill="none" xmlns="http://www.w3.org/2000/svg">
<path d="M16.1159 52.6569C11.7627 52.484 8.20119 51.2928 5.41635 49.0804C4.88488 48.6578 3.61842 47.3906 3.19354 46.8561C2.06425 45.4361 1.29649 44.0542 0.784391 42.5209C-0.791398 37.801 0.0196038 31.6074 3.1041 24.81C5.74507 18.9906 9.82021 13.2189 16.9299 5.22521C17.9772 4.04895 21.096 0.608887 21.1161 0.608887C21.1236 0.608887 20.9536 0.903328 20.7397 1.26187C18.8911 4.35829 17.3093 8.00555 16.4476 11.1631C15.0634 16.2296 15.2304 20.5776 16.9366 23.9491C18.1136 26.2717 20.1314 28.2836 22.4004 29.3957C26.3727 31.342 32.1884 31.503 39.2906 29.8668C39.7796 29.7535 64.0098 23.3214 93.1358 15.5729C122.262 7.82368 146.096 1.48847 146.1 1.49369C146.108 1.5004 78.4319 30.4594 43.3001 45.4831C37.7364 47.8617 36.2486 48.4625 33.633 49.3808C26.9467 51.7289 20.9573 52.8492 16.1159 52.6569Z" fill="black"/>
</svg>
