<svg width="150" height="75" viewBox="0 0 150 75" fill="none" xmlns="http://www.w3.org/2000/svg">
<path d="M81.1043 0.735313C80.6164 0.807408 80.1473 2.60195 79.2045 3.53762C78.5158 4.21155 77.6545 4.1708 77.198 5.00459C77.0238 5.31491 77.0803 5.84779 76.8842 6.35716C76.4983 7.37902 75.1444 7.46994 75.1444 8.58271C75.1397 9.78481 76.2724 10.0136 77.256 10.8678C78.0231 11.5527 78.0969 12.026 79.0256 12.3599C79.8194 12.6279 80.9991 11.7486 82.0612 12.0652C82.9319 12.3238 83.7665 12.5103 83.9642 13.4052C84.1383 14.2312 83.9516 15.5085 82.8943 15.3612C82.5381 15.3205 80.9913 14.8017 79.0946 15.0039C76.8026 15.264 74.189 16.0101 73.9333 18.5632C73.7921 19.9878 75.5586 21.6695 77.2639 21.3278C78.442 21.0975 77.8851 19.7073 78.5252 19.0334C79.3676 18.1682 84.1384 22.0504 88.5702 22.0504C90.4371 22.0504 91.8255 21.5786 93.2045 20.1367C93.3331 20.0254 93.49 19.7903 93.6892 19.7747C93.8775 19.7903 94.2053 19.9753 94.3135 20.0537C97.8826 22.9202 100.583 28.6721 113.706 28.738C115.552 28.7489 117.653 29.6297 119.371 31.1939C120.902 32.6076 121.796 34.8096 122.667 37.0414C123.981 40.3907 126.333 43.6491 129.902 47.2742C130.096 47.4686 133.035 49.7505 133.27 49.9198C133.306 49.9464 133.523 50.4605 133.447 50.7473C133.361 52.9227 133.044 59.2436 137.761 59.5304C138.915 59.5884 138.613 58.7781 138.613 58.2217C138.61 57.1199 138.409 56.0259 138.99 54.8975C139.784 53.3474 137.305 52.6343 137.377 49.2819C137.429 46.7821 135.327 47.2084 134.262 45.3041C133.647 44.2008 133.101 43.6162 133.14 42.2668C133.38 34.6733 131.522 29.683 130.597 28.4574C129.874 27.5327 129.276 27.166 129.936 26.7381C133.874 24.138 134.767 21.7228 134.767 21.7228C136.861 16.8062 138.744 12.316 141.34 10.3381C141.862 9.929 143.204 8.92908 144.026 8.53726C146.45 7.39627 147.723 6.70353 148.428 6.02019C149.54 4.9372 150.422 2.67561 149.353 1.3058C148.026 -0.385297 145.731 0.956303 144.719 1.55657C137.481 5.84779 136.414 13.4178 133.907 17.7654C131.907 21.2385 128.655 23.7901 125.746 23.9985C123.569 24.1599 121.217 23.7195 118.878 22.693C113.188 20.201 110.075 16.9833 109.338 16.4144C107.81 15.2358 95.9436 3.59561 86.3269 3.12072C86.3269 3.12072 85.133 0.732177 84.8333 0.694562C84.1305 0.60366 83.4104 2.11923 82.8943 2.29633C82.4095 2.45619 81.5937 0.655382 81.1043 0.735313" fill="black"/>
<path d="M38.7733 70.2019C37.8681 70.1799 37.0993 69.4386 37.0993 68.5217L37.1025 38.5553H27.2159V71.5858C27.2159 73.2063 28.529 74.526 30.1402 74.526H47.4174C49.0395 74.526 50.3369 73.2063 50.3369 71.5858V38.5553H40.4598L40.4519 68.5217C40.4519 69.4386 39.6832 70.1799 38.7733 70.2019" fill="black"/>
<path d="M71.8703 38.5553H56.9102C55.1374 38.5553 53.6957 39.9941 53.6957 41.7808V74.526H63.5917V44.489C63.598 43.569 64.3432 42.8402 65.264 42.8402C66.1865 42.8402 66.9285 43.5518 66.9489 44.4639V74.526H76.8025V44.4639C76.8151 43.5518 77.5556 42.8402 78.478 42.8402C79.3911 42.8402 80.1472 43.569 80.1535 44.489V74.526H90.0495V41.7808C90.0495 39.9941 88.6031 38.5553 86.8335 38.5553H71.8703Z" fill="black"/>
<path d="M20.6223 65.4875H10.6352V74.526H0.754974V38.5553H20.685C22.4687 38.5553 23.8618 40.0035 23.8618 41.7949V62.2448C23.8618 64.0424 22.4138 65.4875 20.6223 65.4875V65.4875ZM13.9878 44.5517C13.9956 43.5518 13.1798 42.8402 12.3139 42.8402H10.6352V61.0333H12.3139C13.1861 61.0333 13.9956 60.3405 13.9878 59.3437V44.5517Z" fill="black"/>
<path d="M106.636 74.526V65.4953H103.278V74.526H93.402V41.7808C93.402 39.9941 94.8438 38.5553 96.6165 38.5553H113.299C115.075 38.5553 116.515 39.9941 116.515 41.7808V74.526H106.636ZM106.636 61.0395V44.4765C106.613 43.5612 105.876 42.8575 104.953 42.8575C104.04 42.8575 103.287 43.5894 103.278 44.5031V61.0395H106.636Z" fill="black"/>
</svg>
