<svg width="135" height="78" viewBox="0 0 135 78" fill="none" xmlns="http://www.w3.org/2000/svg">
<path d="M98.9089 29.1259C109.748 24.3608 116.825 17.2048 117.211 9.26619C117.211 9.26619 114.349 7.06325 105.11 3.66607C96.9973 0.682827 90.8078 5.8542e-05 90.8078 5.8542e-05L90.8363 17.6878C90.8363 20.3308 89.7746 23.0286 87.7701 25.4171C81.6377 23.9374 74.8602 23.1071 67.7517 23.1047H67.747C60.6338 23.1071 53.8491 23.9397 47.7095 25.4218C45.7051 23.0333 44.6409 20.3332 44.6409 17.6878L44.6671 5.8542e-05C44.6671 5.8542e-05 38.4823 0.682827 30.3645 3.66607C21.1254 7.06325 18.2687 9.26619 18.2687 9.26619C18.652 17.2072 25.7319 24.3656 36.5826 29.1307C25.7414 33.8958 18.6639 41.0517 18.2806 48.988C18.2806 48.988 21.1397 51.1933 30.3788 54.5881C38.4942 57.5714 44.6814 58.2542 44.6814 58.2542L44.6528 40.5664C44.6528 37.9234 45.7146 35.2232 47.7214 32.8371C53.8538 34.3192 60.629 35.1471 67.7374 35.1471H67.7398C74.8554 35.1471 81.6425 34.3168 87.7797 32.83C89.7841 35.2185 90.8459 37.9234 90.8459 40.5664L90.8221 58.2542C90.8221 58.2542 97.0092 57.5714 105.125 54.5881C114.364 51.1933 117.223 48.988 117.223 48.988C116.837 41.047 109.757 33.8886 98.9089 29.1259V29.1259ZM67.7422 33.1059H67.7351L67.5327 33.1012C61.1146 33.1012 55.8821 31.5311 52.0446 29.1307C55.8821 26.7255 61.117 25.153 67.547 25.153L67.7446 25.1506H67.7541L67.9565 25.153C74.3769 25.153 79.6071 26.7231 83.4446 29.1235C79.6071 31.5263 74.3722 33.1012 67.9446 33.1012" fill="black"/>
<path d="M4.08141 77.8508C0.972354 77.8508 0.9176 75.4814 0.9176 74.5678V70.2571C0.9176 69.9954 0.896175 69.6481 1.45085 69.6481H3.05775C3.5791 69.6481 3.54578 70.0192 3.54578 70.2571V74.5678C3.54578 74.8747 3.60291 75.6979 4.73369 75.6979H7.42852C8.53788 75.6979 8.60216 74.8747 8.60216 74.5678V70.2571C8.60216 70.0192 8.57121 69.6481 9.09018 69.6481H10.709C11.297 69.6481 11.2446 70.0192 11.2446 70.2571V74.5678C11.2446 75.4814 11.1899 77.8508 8.0689 77.8508" fill="black"/>
<path d="M18.9717 77.3304C17.8742 75.8531 16.3078 73.9927 14.7104 72.0277V77.2757C14.7104 77.5041 14.7676 77.8514 14.2224 77.8514H12.7226C12.1799 77.8514 12.2441 77.5041 12.2441 77.2757V70.2577C12.2441 70.0198 12.2203 69.6487 12.7226 69.6487H15.646C16.4721 69.6487 17.6481 71.3116 18.4194 72.4083C19.0146 73.2457 20.1144 74.5042 20.8524 75.4487V70.2577C20.8524 70.0198 20.819 69.6487 21.3642 69.6487H22.9925C23.5163 69.6487 23.4829 70.0198 23.4829 70.2577V77.8514H20.4834C19.8406 77.8514 19.5573 77.8942 18.9717 77.3304" fill="black"/>
<path d="M31.3293 75.6934C32.6434 75.6934 32.5482 74.4325 32.5482 73.8568C32.5482 71.9227 32.0031 71.8466 31.1341 71.8466H27.0038V75.6934H31.3293V75.6934ZM24.4685 77.8535V69.6627H31.7126C32.1554 69.6627 35.1216 69.6104 35.1216 72.7244C35.1216 75.9099 35.4692 77.8535 31.7769 77.8535H27.8727L27.0252 76.1383V77.8535" fill="black"/>
<path d="M37.9593 69.7152H44.6321C45.1987 69.7152 45.1225 70.0839 45.1225 70.7691C45.1225 71.4066 45.2082 71.7658 44.6321 71.7658H39.3591C39.2186 71.7658 38.7425 71.6897 38.7425 72.1893C38.7425 72.6889 38.6449 72.8863 39.1758 72.8863H43.8394C43.8394 72.8863 44.5131 74.1686 44.5892 74.3851C44.6987 74.5802 44.6868 74.7657 44.275 74.7657H39.4472L38.6973 73.3098V75.4604C38.6973 75.96 39.1448 75.8625 39.2734 75.8625H44.7511C45.2963 75.8625 45.251 76.2407 45.251 76.8592C45.251 77.5254 45.2963 77.8917 44.7511 77.8917H37.8165C37.2404 77.8917 36.1119 77.7181 36.1119 75.9172V71.3971C36.1119 70.9308 36.3619 69.7152 37.9593 69.7152" fill="black"/>
<path d="M52.7375 71.8236H49.4879C48.9476 71.8236 48.9666 72.0092 48.9666 72.1733V73.6388H52.3137C53.9349 73.6388 53.9349 73.2343 53.9349 72.8109C53.9349 71.964 53.8706 71.8236 52.7375 71.8236V71.8236ZM46.9241 69.6611H54.2277C55.2061 69.6611 56.6273 69.6516 56.6273 72.2899C56.6273 74.017 56.2607 74.1027 55.4775 74.6356C56.794 74.864 56.6202 76.5459 56.6202 77.4166C56.6202 77.8615 56.4583 77.852 56.325 77.852H54.1849C53.7373 77.852 53.8468 77.1454 53.8468 76.7767C53.8468 75.7656 53.2826 75.8108 53.0636 75.8108H49.9117C49.6094 75.2874 49.0214 74.1146 49.0214 74.1146V77.5141C49.0214 77.8091 48.7262 77.852 48.619 77.852H46.4694C46.586 77.852 46.248 77.8734 46.248 77.5784V70.3677C46.248 69.8562 46.6074 69.6611 46.9241 69.6611" fill="black"/>
<path d="M68.3342 71.9837L66.9868 74.4388L67.1058 74.5577H69.6173L69.7483 74.4388C69.6602 74.2532 68.5746 72.1907 68.4651 71.9718L68.3342 71.9837V71.9837ZM69.2031 69.7165C69.7364 69.7165 70.2553 69.9544 70.8219 71.0511C71.2052 71.8314 73.8572 76.6203 74.4095 77.6219V77.8931H71.648L70.8529 76.4585H67.4962C67.4962 76.4585 66.932 75.1668 66.7701 74.8099C66.563 75.1453 65.4537 77.2531 65.0704 77.8931H62.3018V77.7194C62.866 76.656 66.7249 69.7165 66.7249 69.7165" fill="black"/>
<path d="M81.6519 71.8236H78.4024C77.8597 71.8236 77.8811 72.0092 77.8811 72.1733V73.6388H81.2282C82.8494 73.6388 82.8494 73.2343 82.8494 72.8109C82.8494 71.964 82.7851 71.8236 81.6519 71.8236V71.8236ZM75.8385 69.6611H83.1422C84.1206 69.6611 85.5442 69.6516 85.5442 72.2899C85.5442 74.017 85.1776 74.1027 84.392 74.6356C85.7061 74.864 85.5323 76.5459 85.5323 77.4166C85.5323 77.8615 85.3704 77.852 85.2395 77.852H83.0993C82.6518 77.852 82.7613 77.1454 82.7613 76.7767C82.7613 75.7656 82.1971 75.8108 81.9781 75.8108H78.8262C78.5215 75.2874 77.9335 74.1146 77.9335 74.1146V77.5141C77.9335 77.8091 77.643 77.852 77.5335 77.852H75.3815C75.5005 77.852 75.1648 77.8734 75.1648 77.5784V70.3677C75.1648 69.8562 75.5243 69.6611 75.8385 69.6611" fill="black"/>
<path d="M91.9251 77.8508C91.38 76.8302 89.8683 74.0159 88.847 72.1722V77.2751C88.847 77.5035 88.878 77.8508 88.3614 77.8508H86.8806C86.326 77.8508 86.3688 77.5035 86.3688 77.2751V70.2571C86.3688 70.0192 86.3379 69.66 86.8806 69.66H89.435C89.8159 69.66 90.3563 69.572 90.9681 70.79C91.4252 71.7654 92.3941 73.7899 93.0559 74.8628C93.7391 73.7899 94.7295 71.7654 95.1865 70.79C95.7841 69.572 96.3149 69.66 96.7387 69.66H99.2812C99.8049 69.66 99.7501 70.0192 99.7501 70.2571V77.2751C99.7501 77.5035 99.8239 77.8508 99.2812 77.8508H97.7933C97.2505 77.8508 97.2934 77.5035 97.2934 77.2751V72.1722C96.2626 74.0159 94.7604 76.8302 94.1938 77.8508" fill="black"/>
<path d="M107.9 75.7647C109.131 75.7647 109.086 74.4967 109.086 73.6474C109.086 72.8861 109.26 71.6918 107.662 71.6918H104.953C103.368 71.6918 103.553 72.8861 103.553 73.6474C103.553 74.4967 103.477 75.7647 104.705 75.7647H107.9ZM103.032 77.8724C100.608 77.8724 100.716 75.2746 100.716 73.595C100.716 72.0511 100.542 69.6412 103.575 69.6174H108.957C112 69.6174 111.802 72.0606 111.802 73.595C111.802 75.2746 111.923 77.8724 109.464 77.8724" fill="black"/>
<path d="M115.854 77.8508C112.743 77.8508 112.691 75.4814 112.691 74.5678V70.2571C112.691 69.9954 112.669 69.6481 113.224 69.6481H114.833C115.352 69.6481 115.321 70.0192 115.321 70.2571V74.5678C115.321 74.8747 115.376 75.6979 116.507 75.6979H119.201C120.311 75.6979 120.375 74.8747 120.375 74.5678V70.2571C120.375 70.0192 120.342 69.6481 120.863 69.6481H122.482C123.07 69.6481 123.018 70.0192 123.018 70.2571V74.5678C123.018 75.4814 122.963 77.8508 119.842 77.8508" fill="black"/>
<path d="M130.556 71.8236H127.307C126.764 71.8236 126.786 72.0092 126.786 72.1733V73.6388H130.133C131.754 73.6388 131.754 73.2343 131.754 72.8109C131.754 71.964 131.69 71.8236 130.556 71.8236V71.8236ZM124.741 69.6611H132.047C133.025 69.6611 134.451 69.6516 134.451 72.2899C134.451 74.017 134.08 74.1027 133.296 74.6356C134.613 74.864 134.439 76.5459 134.439 77.4166C134.439 77.8615 134.277 77.852 134.144 77.852H132.004C131.559 77.852 131.666 77.1454 131.666 76.7767C131.666 75.7656 131.102 75.8108 130.885 75.8108H127.731C127.428 75.2874 126.84 74.1146 126.84 74.1146V77.5141C126.84 77.8091 126.545 77.852 126.438 77.852H124.288C124.405 77.852 124.069 77.8734 124.069 77.5784V70.3677C124.069 69.8562 124.429 69.6611 124.741 69.6611" fill="black"/>
</svg>
