<svg width="149" height="82" viewBox="0 0 149 82" fill="none" xmlns="http://www.w3.org/2000/svg">
<path d="M0.745941 81.5298H4.06469V74.9526C4.06469 73.7812 4.06469 72.3362 4.66576 71.4896C5.26383 70.5693 6.33794 70.2701 6.93752 70.2701C9.73352 70.2701 9.73352 73.5602 9.73352 74.703V81.5298H13.0508V74.0564C13.0508 72.9828 13.0508 70.6686 11.7793 69.1498C10.6329 67.7529 8.80855 67.2266 7.61241 67.2266C5.51391 67.2266 4.36598 68.3769 3.81762 68.9002V67.7003H0.745941V81.5298Z" fill="black"/>
<path fill-rule="evenodd" clip-rule="evenodd" d="M28.1447 76.0999C28.2396 75.6533 28.3435 75.0789 28.3435 74.4323C28.3435 70.9467 25.5716 67.1529 21.1788 67.1529C16.9094 67.1529 13.8905 70.7452 13.8905 74.6548C13.8905 78.6892 17.0857 81.9808 21.2044 81.9808C24.4493 81.9808 27.0931 79.6666 27.8931 77.1735H24.3966C23.7744 78.3193 22.6777 78.9404 21.2044 78.9404C18.8332 78.9404 17.5346 76.9976 17.384 76.0999H28.1447ZM17.2845 73.4338C17.9082 70.867 19.9811 70.1949 21.2044 70.1949C22.8524 70.1949 24.5728 71.2159 24.9479 73.4338H17.2845" fill="black"/>
<path d="M32.6026 81.5306H34.6453L37.2681 72.5626H37.3163L39.915 81.5306H41.9607L47.027 67.7011H43.4838L40.9348 76.1489H40.8866L38.6375 67.7011H35.9951L33.7234 76.1489H33.6737L31.1534 67.7011H27.6086L32.6026 81.5306Z" fill="black"/>
<path fill-rule="evenodd" clip-rule="evenodd" d="M53.4524 81.5307H56.4955V79.8616C57.3165 80.7849 58.4945 81.9803 61.1655 81.9803C66.2302 81.9803 68.0531 77.3219 68.0531 74.5536C68.0531 70.8951 65.3083 67.2276 61.0902 67.2276C59.5415 67.2276 57.9176 67.8035 56.7696 68.9508V63.0939H53.4524V81.5307ZM56.5693 74.4318C56.5693 72.4138 58.142 70.2711 60.6879 70.2711C62.7865 70.2711 64.7343 71.8875 64.7343 74.5822C64.7343 77.2693 62.9115 78.9414 60.7392 78.9414C58.7928 78.9414 56.5693 77.4963 56.5693 74.4318Z" fill="black"/>
<path fill-rule="evenodd" clip-rule="evenodd" d="M83.5497 67.7018H80.5021V69.4506H80.4524C80.3515 69.2492 78.6778 67.2267 75.8607 67.2267C72.0177 67.2267 68.9204 70.2927 68.9204 74.5316C68.9204 79.139 72.0916 81.981 75.6619 81.981C77.4064 81.981 79.4552 81.0562 80.5021 79.8171V81.5314H83.5497V67.7018ZM80.4057 74.5828C80.4057 77.1481 78.6552 78.9405 76.3579 78.9405C73.9882 78.9405 72.2392 77.0218 72.2392 74.6805C72.2392 72.6129 73.6372 70.2717 76.3579 70.2717C78.3313 70.2717 80.4057 71.7152 80.4057 74.5828" fill="black"/>
<path d="M88.6332 63.0944H85.3144V81.5312H88.6332V63.0944Z" fill="black"/>
<path fill-rule="evenodd" clip-rule="evenodd" d="M104.257 67.7018H101.212V69.4506H101.161C101.06 69.2492 99.3866 67.2267 96.5695 67.2267C92.722 67.2267 89.6292 70.2927 89.6292 74.5316C89.6292 79.139 92.8004 81.981 96.3692 81.981C98.1152 81.981 100.161 81.0562 101.212 79.8171V81.5314H104.257V67.7018ZM101.112 74.5828C101.112 77.1481 99.3655 78.9405 97.0682 78.9405C94.6955 78.9405 92.9495 77.0218 92.9495 74.6805C92.9495 72.6129 94.3475 70.2717 97.0682 70.2717C99.0401 70.2717 101.112 71.7152 101.112 74.5828" fill="black"/>
<path d="M106.024 81.5306H109.341V74.9535C109.341 73.7821 109.341 72.337 109.942 71.4905C110.54 70.5702 111.617 70.271 112.214 70.271C115.009 70.271 115.009 73.561 115.009 74.7039V81.5306H118.33V74.0573C118.33 72.9836 118.33 70.6694 117.054 69.1507C115.906 67.7538 114.087 67.2275 112.887 67.2275C110.789 67.2275 109.644 68.3778 109.093 68.9011V67.7011H106.024V81.5306Z" fill="black"/>
<path d="M130.125 77.0222C129.249 78.4176 128.154 78.9409 127.056 78.9409C124.557 78.9409 122.886 76.9725 122.886 74.6057C122.886 71.7652 124.884 70.2706 126.904 70.2706C128.951 70.2706 129.727 71.5908 130.125 72.287H133.871C132.448 68.0256 128.65 67.2271 126.904 67.2271C123.085 67.2271 119.567 70.3217 119.567 74.5531C119.567 79.1394 123.382 81.9799 126.931 81.9799C130.176 81.9799 132.744 80.1108 133.871 77.0222H130.125Z" fill="black"/>
<path fill-rule="evenodd" clip-rule="evenodd" d="M148.636 76.0999C148.734 75.6533 148.833 75.0789 148.833 74.4323C148.833 70.9467 146.064 67.1529 141.672 67.1529C137.402 67.1529 134.382 70.7452 134.382 74.6548C134.382 78.6892 137.577 81.9808 141.696 81.9808C144.939 81.9808 147.588 79.6666 148.384 77.1735H144.891C144.266 78.3193 143.171 78.9404 141.696 78.9404C139.323 78.9404 138.026 76.9976 137.88 76.0999H148.636ZM137.777 73.4338C138.403 70.867 140.472 70.1949 141.696 70.1949C143.345 70.1949 145.066 71.2159 145.439 73.4338H137.777" fill="black"/>
<path fill-rule="evenodd" clip-rule="evenodd" d="M57.2431 35.6933L52.8065 43.3411L28.2496 41.9622L30.7082 37.7022L57.2431 35.6933ZM74.9953 11.3244L77.2203 19.7646L42.3758 17.479L44.8328 13.2205L74.9953 11.3244ZM51.8951 0.978917L72.2912 0.993952L73.8308 6.76514L49.4411 5.23739L51.8951 0.978917V0.978917ZM50.1024 48.0973L46.5607 54.1752L21.1873 54.2023L23.6444 49.9453L50.1024 48.0973ZM94.6501 31.6994L88.5083 42.3261H94.3579C97.068 42.3261 101.925 40.9758 103.419 37.1233C104.804 33.543 102.259 31.6949 100.483 31.6949L94.6501 31.6994V31.6994ZM100.507 21.5345L105.61 21.5029C109.005 21.4848 112.547 19.9345 113.842 16.7888C115.037 13.8701 113.431 11.3845 111.303 11.3935L106.367 11.3875L100.507 21.5345V21.5345ZM77.4116 19.7646L82.5638 10.8432L100.001 9.72592L100.61 8.64326L84.48 7.51699L88.2522 0.978917L118.165 0.977415C127.363 0.977415 134.168 4.25999 131.522 13.9137C130.727 16.8384 126.988 24.2005 116.022 27.2846C118.35 27.5613 124.147 30.1251 123.148 36.7714C121.373 48.5574 106.086 54.1677 97.5817 54.1707L62.2671 54.1872L60.5272 47.368L79.0236 46.0658L79.6517 44.9861L59.5901 43.7666L57.4284 35.6827L85.9744 34.0197L86.5951 32.949L35.3104 29.7191L37.7675 25.4621L92.9704 21.8848L93.5956 20.8127L77.4116 19.7646" fill="black"/>
</svg>
